<?xml version="1.0" encoding="UTF-8"?>
<svg width="32px" height="32px" viewBox="0 0 32 32" version="1.1" xmlns="http://www.w3.org/2000/svg" xmlns:xlink="http://www.w3.org/1999/xlink">
    <!-- Generator: Sketch 49 (51002) - http://www.bohemiancoding.com/sketch -->
    <title>cion_全部订单</title>
    <desc>Created with Sketch.</desc>
    <defs></defs>
    <g id="cion_全部订单" stroke="none" stroke-width="1" fill="none" fill-rule="evenodd">
        <circle id="Oval-2" fill="#EBEBEB" cx="16" cy="16" r="16"></circle>
        <g id="Group" transform="translate(8.000000, 8.000000)" fill="#999999">
            <path d="M15.091657,1 C15.091657,0.723857625 15.3155147,0.5 15.591657,0.5 C15.8677994,0.5 16.091657,0.723857625 16.091657,1 L16.091657,4.67435913 C16.091657,4.9505015 15.8677994,5.17435913 15.591657,5.17435913 L12,5.17435913 C11.7238576,5.17435913 11.5,4.9505015 11.5,4.67435913 C11.5,4.39821675 11.7238576,4.17435913 12,4.17435913 L15.091657,4.17435913 L15.091657,1 Z" id="Path-4" fill-rule="nonzero"></path>
            <path d="M15.3948653,3.806005 C15.5313036,4.04608665 15.447284,4.35131638 15.2072024,4.48775469 C14.9671207,4.62419299 14.661891,4.54017346 14.5254527,4.30009181 C13.201164,1.96982674 10.7292974,0.5 8,0.5 C3.85786438,0.5 0.5,3.85786438 0.5,8 C0.5,12.1421356 3.85786438,15.5 8,15.5 C11.4444443,15.5 14.4219538,13.1582168 15.2654133,9.86888272 C15.3340034,9.60139437 15.6064487,9.44015544 15.8739371,9.50874549 C16.1414254,9.57733554 16.3026644,9.84978091 16.2340743,10.1172693 C15.2778612,13.8463212 11.9037855,16.5 8,16.5 C3.30557963,16.5 -0.5,12.6944204 -0.5,8 C-0.5,3.30557963 3.30557963,-0.5 8,-0.5 C11.0926661,-0.5 13.8946058,1.16609554 15.3948653,3.806005 Z" id="Oval" fill-rule="nonzero"></path>
            <polygon id="¥" points="5.11 4.86 6.43 4.86 8 7.93 9.57 4.86 10.89 4.86 8.94 8.37 10.27 8.37 10.27 8.99 8.59 8.99 8.58 9 8.58 9.86 10.27 9.86 10.27 10.48 8.58 10.48 8.58 12 7.42 12 7.42 10.48 5.74 10.48 5.74 9.86 7.42 9.86 7.42 9 7.41 8.99 5.74 8.99 5.74 8.37 7.06 8.37"></polygon>
        </g>
    </g>
</svg>