<?xml version="1.0" encoding="UTF-8" standalone="no"?>
<svg width="124px" height="125px" viewBox="0 0 124 125" version="1.1" xmlns="http://www.w3.org/2000/svg" xmlns:xlink="http://www.w3.org/1999/xlink">
    <!-- Generator: Sketch 49.3 (51167) - http://www.bohemiancoding.com/sketch -->
    <title>Group 7</title>
    <desc>Created with Sketch.</desc>
    <defs>
        <rect id="path-1" x="0.5" y="0.5" width="52.5" height="52.5" rx="2"></rect>
    </defs>
    <g id="Page-1" stroke="none" stroke-width="1" fill="none" fill-rule="evenodd">
        <g id="10-拿货车-copy" transform="translate(-126.000000, -152.000000)">
            <g id="Group-8" transform="translate(127.000000, 153.000000)">
                <g id="Group-7">
                    <g id="Group-5" transform="translate(2.000000, 6.000000)">
                        <g id="Group" transform="translate(56.166745, 52.778090) rotate(-20.000000) translate(-56.166745, -52.778090) translate(18.666745, 10.778090)">
                            <g id="Group-3" transform="translate(15.000000, 15.000000)">
                                <mask id="mask-2" fill="white">
                                    <use xlink:href="#path-1"></use>
                                </mask>
                                <use id="Mask" fill="#FFFFFF" xlink:href="#path-1"></use>
                                <rect id="Rectangle-10" fill="#F7F7F7" mask="url(#mask-2)" x="-2.74746581" y="3.5747302" width="52.5" height="52.5" rx="2"></rect>
                            </g>
                            <path d="M17.5,16.5 C16.9477153,16.5 16.5,16.9477153 16.5,17.5 L16.5,66 C16.5,66.5522847 16.9477153,67 17.5,67 L66,67 C66.5522847,67 67,66.5522847 67,66 L67,17.5 C67,16.9477153 66.5522847,16.5 66,16.5 L17.5,16.5 Z M17.5,14.5 L66,14.5 C67.6568542,14.5 69,15.8431458 69,17.5 L69,66 C69,67.6568542 67.6568542,69 66,69 L17.5,69 C15.8431458,69 14.5,67.6568542 14.5,66 L14.5,17.5 C14.5,15.8431458 15.8431458,14.5 17.5,14.5 Z" id="Rectangle-10" fill="#CCCCCC" fill-rule="nonzero"></path>
                            <path d="M34,27.625 L49.5,27.625 L49.5,16.5 L34,16.5 L34,27.625 Z M51.5,14.5 L51.5,27.625 C51.5,28.7295695 50.6045695,29.625 49.5,29.625 L34,29.625 C32.8954305,29.625 32,28.7295695 32,27.625 L32,14.5 L51.5,14.5 Z" id="Rectangle" fill="#CCCCCC" fill-rule="nonzero"></path>
                            <path d="M7.9375,10.081258 L-0.548169827,0.864840318 C-0.922254555,0.458541092 -0.896139544,-0.174085099 -0.489840318,-0.548169827 C-0.0835410918,-0.922254555 0.549085099,-0.896139544 0.923169827,-0.489840318 L9.67316983,9.01367042 C9.84314759,9.1982859 9.9375,9.4400619 9.9375,9.69101073 L9.9375,65.8125 C9.9375,66.3647847 9.48978475,66.8125 8.9375,66.8125 C8.38521525,66.8125 7.9375,66.3647847 7.9375,65.8125 L7.9375,10.081258 Z" id="Line" fill="#CCCCCC" fill-rule="nonzero"></path>
                            <path d="M15.5,77.75 C14.9477153,77.75 14.5,77.3022847 14.5,76.75 C14.5,76.1977153 14.9477153,75.75 15.5,75.75 L68,75.75 C68.2130415,75.75 68.4205153,75.8180378 68.5921846,75.9441977 L75.5129733,81.0302895 C75.9580056,81.357344 76.0536455,81.9832441 75.726591,82.4282764 C75.3995364,82.8733087 74.7736364,82.9689486 74.328604,82.6418941 L67.6720656,77.75 L15.5,77.75 Z" id="Line" fill="#CCCCCC" fill-rule="nonzero"></path>
                            <g id="Group-4" transform="translate(1.000000, 68.000000)">
                                <circle id="Oval-12" fill="#FFFFFF" cx="7.9375" cy="6.5625" r="6.5625"></circle>
                                <circle id="Oval-12" fill="#F7F7F7" cx="7.25345971" cy="8.44188524" r="6.5625"></circle>
                            </g>
                            <path d="M8.9375,82.125 C4.76084658,82.125 1.375,78.7391534 1.375,74.5625 C1.375,70.3858466 4.76084658,67 8.9375,67 C13.1141534,67 16.5,70.3858466 16.5,74.5625 C16.5,78.7391534 13.1141534,82.125 8.9375,82.125 Z M8.9375,80.125 C12.0095839,80.125 14.5,77.6345839 14.5,74.5625 C14.5,71.4904161 12.0095839,69 8.9375,69 C5.86541608,69 3.375,71.4904161 3.375,74.5625 C3.375,77.6345839 5.86541608,80.125 8.9375,80.125 Z" id="Oval-12" fill="#CCCCCC" fill-rule="nonzero"></path>
                        </g>
                        <path d="M92.5,106.5 C93.0522847,106.5 93.5,106.947715 93.5,107.5 C93.5,108.052285 93.0522847,108.5 92.5,108.5 L29.8205352,108.5 C29.3810343,108.5 28.9930492,108.213041 28.8643622,107.792802 C28.1685769,105.520652 26.9854797,104.5 25.1839039,104.5 C23.3528149,104.5 22.0256241,105.559348 21.1010637,107.871313 C20.9492208,108.251012 20.581491,108.5 20.1725558,108.5 L0.5,108.5 C-0.0522847498,108.5 -0.5,108.052285 -0.5,107.5 C-0.5,106.947715 -0.0522847498,106.5 0.5,106.5 L19.516643,106.5 C20.7450144,103.884855 22.6610977,102.5 25.1839039,102.5 C27.7115832,102.5 29.5287433,103.893257 30.5332386,106.5 L92.5,106.5 Z" id="Line-2" fill="#CCCCCC" fill-rule="nonzero"></path>
                        <path d="M26.5,117.5 C25.9477153,117.5 25.5,117.052285 25.5,116.5 C25.5,115.947715 25.9477153,115.5 26.5,115.5 L63.0034245,115.5 C63.5557092,115.5 64.0034245,115.947715 64.0034245,116.5 C64.0034245,117.052285 63.5557092,117.5 63.0034245,117.5 L26.5,117.5 Z" id="Line-3" fill="#CCCCCC" fill-rule="nonzero"></path>
                        <path d="M77.5,117.5 C76.9477153,117.5 76.5,117.052285 76.5,116.5 C76.5,115.947715 76.9477153,115.5 77.5,115.5 L91.0092561,115.5 C91.5615408,115.5 92.0092561,115.947715 92.0092561,116.5 C92.0092561,117.052285 91.5615408,117.5 91.0092561,117.5 L77.5,117.5 Z" id="Line-3-Copy" fill="#CCCCCC" fill-rule="nonzero"></path>
                        <path d="M69.5,117.5 C68.9477153,117.5 68.5,117.052285 68.5,116.5 C68.5,115.947715 68.9477153,115.5 69.5,115.5 L71,115.5 C71.5522847,115.5 72,115.947715 72,116.5 C72,117.052285 71.5522847,117.5 71,117.5 L69.5,117.5 Z" id="Line-3-Copy-2" fill="#CCCCCC" fill-rule="nonzero"></path>
                        <path d="M99.5,108.5 C98.9477153,108.5 98.5,108.052285 98.5,107.5 C98.5,106.947715 98.9477153,106.5 99.5,106.5 L119.5,106.5 C120.052285,106.5 120.5,106.947715 120.5,107.5 C120.5,108.052285 120.052285,108.5 119.5,108.5 L99.5,108.5 Z" id="Line-2-Copy" fill="#CCCCCC" fill-rule="nonzero"></path>
                    </g>
                    <g id="Group-6" transform="translate(0.000000, 60.000000)" fill="#DDDDDD" fill-rule="nonzero">
                        <path d="M3.53553391,-0.707106781 C3.9260582,-1.09763107 4.55922318,-1.09763107 4.94974747,-0.707106781 C5.34027176,-0.316582489 5.34027176,0.316582489 4.94974747,0.707106781 L0.707106781,4.94974747 C0.316582489,5.34027176 -0.316582489,5.34027176 -0.707106781,4.94974747 C-1.09763107,4.55922318 -1.09763107,3.9260582 -0.707106781,3.53553391 L3.53553391,-0.707106781 Z" id="Line-4"></path>
                        <path d="M-0.707106781,0.707106781 C-1.09763107,0.316582489 -1.09763107,-0.316582489 -0.707106781,-0.707106781 C-0.316582489,-1.09763107 0.316582489,-1.09763107 0.707106781,-0.707106781 L4.94974747,3.53553391 C5.34027176,3.9260582 5.34027176,4.55922318 4.94974747,4.94974747 C4.55922318,5.34027176 3.9260582,5.34027176 3.53553391,4.94974747 L-0.707106781,0.707106781 Z" id="Line-4"></path>
                    </g>
                    <g id="Group-6-Copy-2" transform="translate(108.000000, 38.000000)" fill="#DDDDDD" fill-rule="nonzero">
                        <path d="M2.68700577,-0.707106781 C3.07753006,-1.09763107 3.71069504,-1.09763107 4.10121933,-0.707106781 C4.49174362,-0.316582489 4.49174362,0.316582489 4.10121933,0.707106781 L0.707106781,4.10121933 C0.316582489,4.49174362 -0.316582489,4.49174362 -0.707106781,4.10121933 C-1.09763107,3.71069504 -1.09763107,3.07753006 -0.707106781,2.68700577 L2.68700577,-0.707106781 Z" id="Line-4"></path>
                        <path d="M-0.707106781,0.707106781 C-1.09763107,0.316582489 -1.09763107,-0.316582489 -0.707106781,-0.707106781 C-0.316582489,-1.09763107 0.316582489,-1.09763107 0.707106781,-0.707106781 L4.10121933,2.68700577 C4.49174362,3.07753006 4.49174362,3.71069504 4.10121933,4.10121933 C3.71069504,4.49174362 3.07753006,4.49174362 2.68700577,4.10121933 L-0.707106781,0.707106781 Z" id="Line-4"></path>
                    </g>
                    <g id="Group-6-Copy" transform="translate(85.000000, 0.000000)" fill="#DDDDDD" fill-rule="nonzero">
                        <path d="M5.23259018,-0.707106781 C5.62311447,-1.09763107 6.25627945,-1.09763107 6.64680374,-0.707106781 C7.03732803,-0.316582489 7.03732803,0.316582489 6.64680374,0.707106781 L0.707106781,6.64680374 C0.316582489,7.03732803 -0.316582489,7.03732803 -0.707106781,6.64680374 C-1.09763107,6.25627945 -1.09763107,5.62311447 -0.707106781,5.23259018 L5.23259018,-0.707106781 Z" id="Line-4"></path>
                        <path d="M-0.707106781,0.707106781 C-1.09763107,0.316582489 -1.09763107,-0.316582489 -0.707106781,-0.707106781 C-0.316582489,-1.09763107 0.316582489,-1.09763107 0.707106781,-0.707106781 L6.64680374,5.23259018 C7.03732803,5.62311447 7.03732803,6.25627945 6.64680374,6.64680374 C6.25627945,7.03732803 5.62311447,7.03732803 5.23259018,6.64680374 L-0.707106781,0.707106781 Z" id="Line-4"></path>
                    </g>
                    <path d="M119,16 C116.790861,16 115,14.209139 115,12 C115,9.790861 116.790861,8 119,8 C121.209139,8 123,9.790861 123,12 C123,14.209139 121.209139,16 119,16 Z M119,14 C120.104569,14 121,13.1045695 121,12 C121,10.8954305 120.104569,10 119,10 C117.895431,10 117,10.8954305 117,12 C117,13.1045695 117.895431,14 119,14 Z" id="Oval-8" fill="#EBEBEB" fill-rule="nonzero"></path>
                </g>
            </g>
        </g>
    </g>
</svg>