<?xml version="1.0" encoding="UTF-8"?>
<svg width="22px" height="22px" viewBox="0 0 22 22" version="1.1" xmlns="http://www.w3.org/2000/svg" xmlns:xlink="http://www.w3.org/1999/xlink">
    <!-- Generator: Sketch 49 (51002) - http://www.bohemiancoding.com/sketch -->
    <title>icon_在线客服 copy</title>
    <desc>Created with Sketch.</desc>
    <defs></defs>
    <g id="icon_在线客服-copy" stroke="none" stroke-width="1" fill="none" fill-rule="evenodd">
        <g id="Group" transform="translate(3.500000, 0.500000)" fill="#333333" fill-rule="nonzero">
            <path d="M9.04002657,15.9375 C9.11373007,14.4283753 9.57758523,13.3440825 10.4622453,12.7215181 C12.3806533,11.3714713 13.5,9.55284135 13.5,7.5 C13.5,4.1862915 10.8137085,1.5 7.5,1.5 C4.1862915,1.5 1.5,4.1862915 1.5,7.5 C1.5,9.62866114 2.54883642,11.3690799 4.55159493,12.715466 C5.48017613,13.3397194 5.93280054,14.4297687 5.93999478,15.9375 L9.04002657,15.9375 Z M0.5,7.5 C0.5,3.63400675 3.63400675,0.5 7.5,0.5 C11.3659932,0.5 14.5,3.63400675 14.5,7.5 C14.5,9.90893295 13.2036967,12.0150687 11.0377547,13.5393133 C10.3703031,14.0090209 10.0204031,14.9573064 10.0297363,16.4343406 C10.031489,16.7117121 9.80712331,16.9375 9.52974631,16.9375 L5.42614282,16.9375 C5.13855045,16.9375 4.91024005,16.6954801 4.92699175,16.408376 C5.0124423,14.9438555 4.68729319,14.0116566 3.9936819,13.5453654 C1.72921031,12.0230385 0.5,9.98331088 0.5,7.5 Z" id="Combined-Shape"></path>
            <path d="M5.875,18.5625 C5.70241102,18.5625 5.5625,18.702411 5.5625,18.875 C5.5625,19.047589 5.70241102,19.1875 5.875,19.1875 L9.125,19.1875 C9.29758898,19.1875 9.4375,19.047589 9.4375,18.875 C9.4375,18.702411 9.29758898,18.5625 9.125,18.5625 L5.875,18.5625 Z M5.875,17.5625 L9.125,17.5625 C9.84987373,17.5625 10.4375,18.1501263 10.4375,18.875 C10.4375,19.5998737 9.84987373,20.1875 9.125,20.1875 L5.875,20.1875 C5.15012627,20.1875 4.5625,19.5998737 4.5625,18.875 C4.5625,18.1501263 5.15012627,17.5625 5.875,17.5625 Z" id="Rectangle"></path>
        </g>
        <path d="M10,15.5 C9.72385763,15.5 9.5,15.2761424 9.5,15 C9.5,14.7238576 9.72385763,14.5 10,14.5 L12,14.5 C12.2761424,14.5 12.5,14.7238576 12.5,15 C12.5,15.2761424 12.2761424,15.5 12,15.5 L10,15.5 Z" id="Line" fill="#333333" fill-rule="nonzero"></path>
    </g>
</svg>