<?xml version="1.0" encoding="UTF-8"?>
<svg width="22px" height="22px" viewBox="0 0 22 22" version="1.1" xmlns="http://www.w3.org/2000/svg" xmlns:xlink="http://www.w3.org/1999/xlink">
    <!-- Generator: Sketch 49 (51002) - http://www.bohemiancoding.com/sketch -->
    <title>icon_定位</title>
    <desc>Created with Sketch.</desc>
    <defs></defs>
    <g id="icon_定位" stroke="none" stroke-width="1" fill="none" fill-rule="evenodd">
        <g id="Group-8" transform="translate(3.000000, 1.000000)" fill="#999999" fill-rule="nonzero">
            <path d="M8,20.5 C7.0036488,20.5 4.84763557,18.853387 3.08328567,16.726045 C0.86535121,14.0517993 -0.5,11.0061104 -0.5,8 C-0.5,3.30557963 3.30557963,-0.5 8,-0.5 C12.6944204,-0.5 16.5,3.30557963 16.5,8 C16.5,11.0061104 15.1346488,14.0517993 12.9167143,16.726045 C11.1523644,18.853387 8.9963512,20.5 8,20.5 Z M8,19.5 C8.59480255,19.5 10.5646207,17.9955899 12.1469942,16.0876635 C14.2286229,13.5777667 15.5,10.7417058 15.5,8 C15.5,3.85786438 12.1421356,0.5 8,0.5 C3.85786438,0.5 0.5,3.85786438 0.5,8 C0.5,10.7417058 1.77137713,13.5777667 3.85300583,16.0876635 C5.43537935,17.9955899 7.40519745,19.5 8,19.5 Z" id="Oval-2"></path>
            <path d="M8,12.5 C5.51471863,12.5 3.5,10.4852814 3.5,8 C3.5,5.51471863 5.51471863,3.5 8,3.5 C10.4852814,3.5 12.5,5.51471863 12.5,8 C12.5,10.4852814 10.4852814,12.5 8,12.5 Z M8,11.5 C9.93299662,11.5 11.5,9.93299662 11.5,8 C11.5,6.06700338 9.93299662,4.5 8,4.5 C6.06700338,4.5 4.5,6.06700338 4.5,8 C4.5,9.93299662 6.06700338,11.5 8,11.5 Z" id="Oval-3"></path>
        </g>
    </g>
</svg>