<?xml version="1.0" encoding="UTF-8"?>
<svg width="30px" height="30px" viewBox="0 0 30 30" version="1.1" xmlns="http://www.w3.org/2000/svg" xmlns:xlink="http://www.w3.org/1999/xlink">
    <!-- Generator: Sketch 49 (51002) - http://www.bohemiancoding.com/sketch -->
    <title>icon-我的-未选中@3x</title>
    <desc>Created with Sketch.</desc>
    <defs></defs>
    <g id="icon-我的-未选中" stroke="none" stroke-width="1" fill="none" fill-rule="evenodd">
        <g id="Group" transform="translate(3.000000, 3.000000)" fill="#333333" fill-rule="nonzero">
            <path d="M12,24.5 C5.09644063,24.5 -0.5,18.9035594 -0.5,12 C-0.5,5.09644063 5.09644063,-0.5 12,-0.5 C18.9035594,-0.5 24.5,5.09644063 24.5,12 C24.5,18.9035594 18.9035594,24.5 12,24.5 Z M12,23.5 C18.3512746,23.5 23.5,18.3512746 23.5,12 C23.5,5.64872538 18.3512746,0.5 12,0.5 C5.64872538,0.5 0.5,5.64872538 0.5,12 C0.5,18.3512746 5.64872538,23.5 12,23.5 Z" id="Oval-3"></path>
            <path d="M6.31622286,15.4682162 C6.17831811,15.2289739 6.26046846,14.9232358 6.49971079,14.785331 C6.73895312,14.6474263 7.04469123,14.7295766 7.18259598,14.968819 C8.1672861,16.6770964 9.98720423,17.7517483 11.9950111,17.7517483 C13.9904692,17.7517483 15.8008167,16.6903647 16.7900146,14.9988082 C16.929413,14.7604331 17.2356589,14.6801966 17.474034,14.8195949 C17.7124092,14.9589933 17.7926457,15.2652392 17.6532474,15.5036143 C16.4864879,17.4988062 14.3494088,18.7517483 11.9950111,18.7517483 C9.62602619,18.7517483 7.47768496,17.4831643 6.31622286,15.4682162 Z" id="Oval-3"></path>
        </g>
    </g>
</svg>