<?xml version="1.0" encoding="UTF-8"?>
<svg width="22px" height="22px" viewBox="0 0 22 22" version="1.1" xmlns="http://www.w3.org/2000/svg" xmlns:xlink="http://www.w3.org/1999/xlink">
    <!-- Generator: Sketch 49 (51002) - http://www.bohemiancoding.com/sketch -->
    <title>icon_地址管理 copy</title>
    <desc>Created with Sketch.</desc>
    <defs></defs>
    <g id="icon_地址管理-copy" stroke="none" stroke-width="1" fill="none" fill-rule="evenodd">
        <g id="Group" transform="translate(2.000000, 2.000000)" fill="#333333" fill-rule="nonzero">
            <path d="M10.8444191,16.5 C11.1205615,16.5 11.3444191,16.7238576 11.3444191,17 C11.3444191,17.2761424 11.1205615,17.5 10.8444191,17.5 L2.77777778,17.5 C1.51979585,17.5 0.5,16.4802042 0.5,15.2222222 L0.5,2.77777778 C0.5,1.51979585 1.51979585,0.5 2.77777778,0.5 L15.2222222,0.5 C16.4802042,0.5 17.5,1.51979585 17.5,2.77777778 L17.5,9.93421325 C17.5,10.2103556 17.2761424,10.4342132 17,10.4342132 C16.7238576,10.4342132 16.5,10.2103556 16.5,9.93421325 L16.5,2.77777778 C16.5,2.0720806 15.9279194,1.5 15.2222222,1.5 L2.77777778,1.5 C2.0720806,1.5 1.5,2.0720806 1.5,2.77777778 L1.5,15.2222222 C1.5,15.9279194 2.0720806,16.5 2.77777778,16.5 L10.8444191,16.5 Z" id="Rectangle-11"></path>
            <g id="Group-2" transform="translate(11.666667, 11.666667)">
                <path d="M0,3.16666667 C-0.276142375,3.16666667 -0.5,2.94280904 -0.5,2.66666667 C-0.5,2.39052429 -0.276142375,2.16666667 0,2.16666667 L5.33333333,2.16666667 C5.60947571,2.16666667 5.83333333,2.39052429 5.83333333,2.66666667 C5.83333333,2.94280904 5.60947571,3.16666667 5.33333333,3.16666667 L0,3.16666667 Z" id="Line"></path>
                <path d="M2.16666667,-2.22044605e-16 C2.16666667,-0.276142375 2.39052429,-0.5 2.66666667,-0.5 C2.94280904,-0.5 3.16666667,-0.276142375 3.16666667,2.22044605e-16 L3.16666667,5.33333333 C3.16666667,5.60947571 2.94280904,5.83333333 2.66666667,5.83333333 C2.39052429,5.83333333 2.16666667,5.60947571 2.16666667,5.33333333 L2.16666667,-2.22044605e-16 Z" id="Line"></path>
            </g>
            <path d="M5.94444444,1.5 L5.94444444,5 C5.94444444,5.27614237 6.16830207,5.5 6.44444444,5.5 L11.4444444,5.5 C11.7205868,5.5 11.9444444,5.27614237 11.9444444,5 L11.9444444,1.5 L5.94444444,1.5 Z M5.44444444,0.5 L12.4444444,0.5 C12.7205868,0.5 12.9444444,0.723857625 12.9444444,1 L12.9444444,5 C12.9444444,5.82842712 12.2728716,6.5 11.4444444,6.5 L6.44444444,6.5 C5.61601732,6.5 4.94444444,5.82842712 4.94444444,5 L4.94444444,1 C4.94444444,0.723857625 5.16830207,0.5 5.44444444,0.5 Z" id="Rectangle-11"></path>
        </g>
    </g>
</svg>