<?xml version="1.0" encoding="UTF-8"?>
<svg width="16px" height="16px" viewBox="0 0 16 16" version="1.1" xmlns="http://www.w3.org/2000/svg" xmlns:xlink="http://www.w3.org/1999/xlink">
    <!-- Generator: Sketch 49 (51002) - http://www.bohemiancoding.com/sketch -->
    <title>icon_搜索</title>
    <desc>Created with Sketch.</desc>
    <defs></defs>
    <g id="icon_搜索" stroke="none" stroke-width="1" fill="none" fill-rule="evenodd">
        <g id="Group-9" transform="translate(1.000000, 1.000000)" fill="#333333" fill-rule="nonzero">
            <path d="M6,12.5 C2.41014913,12.5 -0.5,9.58985087 -0.5,6 C-0.5,2.41014913 2.41014913,-0.5 6,-0.5 C9.58985087,-0.5 12.5,2.41014913 12.5,6 C12.5,9.58985087 9.58985087,12.5 6,12.5 Z M6,11.5 C9.03756612,11.5 11.5,9.03756612 11.5,6 C11.5,2.96243388 9.03756612,0.5 6,0.5 C2.96243388,0.5 0.5,2.96243388 0.5,6 C0.5,9.03756612 2.96243388,11.5 6,11.5 Z" id="Oval"></path>
            <path d="M10.1464466,10.8535534 C9.95118446,10.6582912 9.95118446,10.3417088 10.1464466,10.1464466 C10.3417088,9.95118446 10.6582912,9.95118446 10.8535534,10.1464466 L14.0355339,13.3284271 C14.2307961,13.5236893 14.2307961,13.8402718 14.0355339,14.0355339 C13.8402718,14.2307961 13.5236893,14.2307961 13.3284271,14.0355339 L10.1464466,10.8535534 Z" id="Line"></path>
        </g>
    </g>
</svg>