<?xml version="1.0" encoding="UTF-8"?>
<svg width="22px" height="22px" viewBox="0 0 22 22" version="1.1" xmlns="http://www.w3.org/2000/svg" xmlns:xlink="http://www.w3.org/1999/xlink">
    <!-- Generator: Sketch 49 (51002) - http://www.bohemiancoding.com/sketch -->
    <title>icon-分类 copy 2</title>
    <desc>Created with Sketch.</desc>
    <defs></defs>
    <g id="icon-分类-copy-2" stroke="none" stroke-width="1" fill="none" fill-rule="evenodd">
        <g id="Group" transform="translate(1.300000, 3.400000)" fill="#333333" fill-rule="nonzero">
            <path d="M4.24341136,2.69230769 L5.28636328,8.99322224 L16.154568,8.82066655 C16.3731836,8.81719557 16.5641894,8.6720832 16.62614,8.46240028 L18.1413282,3.33397841 C18.1549178,3.28798202 18.1618187,3.24026961 18.1618187,3.19230769 C18.1618187,2.91616532 17.9379611,2.69230769 17.6618187,2.69230769 L4.24341136,2.69230769 Z M3.65384615,1.69230769 L17.6618187,1.69230769 C18.4902458,1.69230769 19.1618187,2.36388057 19.1618187,3.19230769 C19.1618187,3.33619344 19.1411161,3.47933067 19.1003473,3.61731985 L17.5851591,8.74574172 C17.3993071,9.37479048 16.8262898,9.81012759 16.1704431,9.82054054 L4.87138141,9.99993699 C4.62377612,10.0038682 4.4105953,9.82596322 4.37015578,9.58165096 L3.16055808,2.27395866 C3.1101395,1.96935861 3.34510157,1.69230769 3.65384615,1.69230769 Z" id="Rectangle-4"></path>
            <path d="M2.65413105,0.5 L0,0.5 C-0.276142375,0.5 -0.5,0.276142375 -0.5,0 C-0.5,-0.276142375 -0.276142375,-0.5 0,-0.5 L3.06813181,-0.5 C3.30830963,-0.5 3.51455587,-0.329227795 3.55935639,-0.0932653004 L5.84081343,11.9230769 L17.5384615,11.9230769 C17.8146039,11.9230769 18.0384615,12.1469345 18.0384615,12.4230769 C18.0384615,12.6992193 17.8146039,12.9230769 17.5384615,12.9230769 L5.42681266,12.9230769 C5.18663484,12.9230769 4.9803886,12.7523047 4.93558809,12.5163422 L2.65413105,0.5 Z" id="Path-2"></path>
            <path d="M6.57692308,16.6813187 C5.4935953,16.6813187 4.61538462,15.803108 4.61538462,14.7197802 C4.61538462,13.6364524 5.4935953,12.7582418 6.57692308,12.7582418 C7.66025086,12.7582418 8.53846154,13.6364524 8.53846154,14.7197802 C8.53846154,15.803108 7.66025086,16.6813187 6.57692308,16.6813187 Z M6.57692308,15.6813187 C7.10796611,15.6813187 7.53846154,15.2508232 7.53846154,14.7197802 C7.53846154,14.1887372 7.10796611,13.7582418 6.57692308,13.7582418 C6.04588005,13.7582418 5.61538462,14.1887372 5.61538462,14.7197802 C5.61538462,15.2508232 6.04588005,15.6813187 6.57692308,15.6813187 Z" id="Oval"></path>
            <path d="M15.3461538,16.6813187 C14.2628261,16.6813187 13.3846154,15.803108 13.3846154,14.7197802 C13.3846154,13.6364524 14.2628261,12.7582418 15.3461538,12.7582418 C16.4294816,12.7582418 17.3076923,13.6364524 17.3076923,14.7197802 C17.3076923,15.803108 16.4294816,16.6813187 15.3461538,16.6813187 Z M15.3461538,15.6813187 C15.8771969,15.6813187 16.3076923,15.2508232 16.3076923,14.7197802 C16.3076923,14.1887372 15.8771969,13.7582418 15.3461538,13.7582418 C14.8151108,13.7582418 14.3846154,14.1887372 14.3846154,14.7197802 C14.3846154,15.2508232 14.8151108,15.6813187 15.3461538,15.6813187 Z" id="Oval-Copy"></path>
        </g>
    </g>
</svg>