<?xml version="1.0" encoding="UTF-8"?>
<svg width="32px" height="32px" viewBox="0 0 32 32" version="1.1" xmlns="http://www.w3.org/2000/svg" xmlns:xlink="http://www.w3.org/1999/xlink">
    <!-- Generator: Sketch 49 (51002) - http://www.bohemiancoding.com/sketch -->
    <title>icon_待收货</title>
    <desc>Created with Sketch.</desc>
    <defs></defs>
    <g id="icon_待收货" stroke="none" stroke-width="1" fill="none" fill-rule="evenodd">
        <circle id="Oval-2" fill="#EBEBEB" cx="16" cy="16" r="16"></circle>
        <g id="Group-13" transform="translate(9.000000, 9.000000)" fill="#999999" fill-rule="nonzero">
            <path d="M0.5,5.5 L0.5,13 C0.5,13.2761424 0.723857625,13.5 1,13.5 L13,13.5 C13.2761424,13.5 13.5,13.2761424 13.5,13 L13.5,5.5 L0.5,5.5 Z M0,4.5 L14,4.5 C14.2761424,4.5 14.5,4.72385763 14.5,5 L14.5,13 C14.5,13.8284271 13.8284271,14.5 13,14.5 L1,14.5 C0.171572875,14.5 -0.5,13.8284271 -0.5,13 L-0.5,5 C-0.5,4.72385763 -0.276142375,4.5 0,4.5 Z" id="Rectangle-3"></path>
            <path d="M8.4,10 C8.12385763,10 7.9,9.77614237 7.9,9.5 C7.9,9.22385763 8.12385763,9 8.4,9 L11.6,9 C11.8761424,9 12.1,9.22385763 12.1,9.5 C12.1,9.77614237 11.8761424,10 11.6,10 L8.4,10 Z" id="Line"></path>
            <path d="M10.5,13 C10.2238576,13 10,12.7761424 10,12.5 C10,12.2238576 10.2238576,12 10.5,12 L12.5,12 C12.7761424,12 13,12.2238576 13,12.5 C13,12.7761424 12.7761424,13 12.5,13 L10.5,13 Z" id="Line-Copy"></path>
            <path d="M1.29509851,0.5 L0.595098513,4.5 L13.4049015,4.5 L12.7049015,0.5 L1.29509851,0.5 Z M0.875,-0.5 L13.125,-0.5 C13.3678898,-0.5 13.5756458,-0.325444035 13.6175152,-0.0861901659 L14.4925152,4.91380983 C14.5460584,5.21977076 14.3106106,5.5 14,5.5 L0,5.5 C-0.310610617,5.5 -0.546058395,5.21977076 -0.492515234,4.91380983 L0.382484766,-0.0861901659 C0.424354193,-0.325444035 0.632110184,-0.5 0.875,-0.5 Z" id="Rectangle-4"></path>
        </g>
    </g>
</svg>