<?xml version="1.0" encoding="UTF-8"?>
<svg width="30px" height="30px" viewBox="0 0 30 30" version="1.1" xmlns="http://www.w3.org/2000/svg" xmlns:xlink="http://www.w3.org/1999/xlink">
    <!-- Generator: Sketch 49 (51002) - http://www.bohemiancoding.com/sketch -->
    <title>icon-分类 copy 4</title>
    <desc>Created with Sketch.</desc>
    <defs></defs>
    <g id="icon-分类-copy-4" stroke="none" stroke-width="1" fill="none" fill-rule="evenodd">
        <g id="Group" transform="translate(2.500000, 0.600000)" fill="#333333" fill-rule="nonzero">
            <path d="M3,3.58 C2.17157288,3.58 1.5,4.25157288 1.5,5.08 L1.5,11.48 C1.5,12.3084271 2.17157288,12.98 3,12.98 L9.4,12.98 C10.2284271,12.98 10.9,12.3084271 10.9,11.48 L10.9,5.08 C10.9,4.25157288 10.2284271,3.58 9.4,3.58 L3,3.58 Z M3,2.58 L9.4,2.58 C10.7807119,2.58 11.9,3.69928813 11.9,5.08 L11.9,11.48 C11.9,12.8607119 10.7807119,13.98 9.4,13.98 L3,13.98 C1.61928813,13.98 0.5,12.8607119 0.5,11.48 L0.5,5.08 C0.5,3.69928813 1.61928813,2.58 3,2.58 Z" id="Rectangle-13"></path>
            <path d="M24.8729986,7.16185715 C24.6552224,9.25961319 23.509136,10.9994084 21.7744569,12.368754 C20.6316699,13.2708634 19.1215684,14.0239638 18.6745726,14.0239638 C18.2121373,14.0239638 16.7022536,13.321075 15.5634631,12.4468386 C13.8155922,11.105018 12.6719698,9.34227528 12.4754792,7.15496355 C12.14833,3.51317484 16.0053526,1.70097723 18.6747188,4.24555314 C21.3509594,1.69820494 25.2507772,3.52285815 24.8729986,7.16185715 Z M21.1548511,11.5838409 C22.6949171,10.3681217 23.6918844,8.85469391 23.8783441,7.05859822 C24.1727413,4.22278017 21.0875475,2.91833098 19.0546838,5.2971471 L18.6745726,5.74194558 L18.2944614,5.2971471 C16.2639787,2.92111725 13.215407,4.2150436 13.4714685,7.06549182 C13.6402531,8.94438336 14.6294697,10.46913 16.172405,11.6536238 C17.1525996,12.4061079 18.4798232,13.0239638 18.6745726,13.0239638 C18.8389249,13.0239638 20.1738914,12.3582047 21.1548511,11.5838409 Z" id="Oval-4" transform="translate(18.677239, 8.541133) rotate(42.000000) translate(-18.677239, -8.541133) "></path>
            <path d="M3,16.06 C2.17157288,16.06 1.5,16.7315729 1.5,17.56 L1.5,23.96 C1.5,24.7884271 2.17157288,25.46 3,25.46 L9.4,25.46 C10.2284271,25.46 10.9,24.7884271 10.9,23.96 L10.9,17.56 C10.9,16.7315729 10.2284271,16.06 9.4,16.06 L3,16.06 Z M3,15.06 L9.4,15.06 C10.7807119,15.06 11.9,16.1792881 11.9,17.56 L11.9,23.96 C11.9,25.3407119 10.7807119,26.46 9.4,26.46 L3,26.46 C1.61928813,26.46 0.5,25.3407119 0.5,23.96 L0.5,17.56 C0.5,16.1792881 1.61928813,15.06 3,15.06 Z" id="Rectangle-13-Copy-2"></path>
            <path d="M15.48,16.06 C14.6515729,16.06 13.98,16.7315729 13.98,17.56 L13.98,23.96 C13.98,24.7884271 14.6515729,25.46 15.48,25.46 L21.88,25.46 C22.7084271,25.46 23.38,24.7884271 23.38,23.96 L23.38,17.56 C23.38,16.7315729 22.7084271,16.06 21.88,16.06 L15.48,16.06 Z M15.48,15.06 L21.88,15.06 C23.2607119,15.06 24.38,16.1792881 24.38,17.56 L24.38,23.96 C24.38,25.3407119 23.2607119,26.46 21.88,26.46 L15.48,26.46 C14.0992881,26.46 12.98,25.3407119 12.98,23.96 L12.98,17.56 C12.98,16.1792881 14.0992881,15.06 15.48,15.06 Z" id="Rectangle-13-Copy"></path>
        </g>
    </g>
</svg>