<?xml version="1.0" encoding="UTF-8"?>
<svg width="22px" height="22px" viewBox="0 0 22 22" version="1.1" xmlns="http://www.w3.org/2000/svg" xmlns:xlink="http://www.w3.org/1999/xlink">
    <!-- Generator: Sketch 49 (51002) - http://www.bohemiancoding.com/sketch -->
    <title>icon_收藏 copy 2</title>
    <desc>Created with Sketch.</desc>
    <defs></defs>
    <g id="icon_收藏-copy-2" stroke="none" stroke-width="1" fill="none" fill-rule="evenodd">
        <path d="M10.5346589,16.1648685 C10.8259829,16.0117104 11.1740171,16.0117104 11.4653411,16.1648685 L15.8436141,18.4666629 L15.0074384,13.5913842 C14.9518004,13.2669902 15.0593489,12.93599 15.295035,12.7062528 L18.8371323,9.25356131 L13.9420743,8.54226775 C13.6163641,8.49493929 13.3347985,8.29036992 13.1891365,7.99522644 L11,3.55955141 L8.8108635,7.99522644 C8.66520149,8.29036992 8.3836359,8.49493929 8.05792574,8.54226775 L3.16286772,9.25356131 L6.70496498,12.7062528 C6.94065107,12.93599 7.04819955,13.2669902 6.99256161,13.5913842 L6.15638588,18.4666629 L10.5346589,16.1648685 Z M5.29359598,21.1798098 C4.5599686,21.5655006 3.70253616,20.9425394 3.84264653,20.1256333 L4.93247272,13.7714591 L0.315894888,9.27140787 C-0.277622131,8.69287177 0.0498879146,7.68489949 0.870108262,7.5657145 L7.25006191,6.63865297 L10.1032639,0.857434241 C10.4700776,0.114188523 11.5299224,0.114188523 11.8967361,0.857434241 L14.7499381,6.63865297 L21.1298917,7.5657145 C21.9501121,7.68489949 22.2776221,8.69287177 21.6841051,9.27140787 L17.0675273,13.7714591 L18.1573535,20.1256333 C18.2974638,20.9425394 17.4400314,21.5655006 16.706404,21.1798098 L11,18.1797757 L5.29359598,21.1798098 Z" id="Star" fill="#FFFFFF" fill-rule="nonzero"></path>
    </g>
</svg>