<?xml version="1.0" encoding="UTF-8"?>
<svg width="22px" height="22px" viewBox="0 0 22 22" version="1.1" xmlns="http://www.w3.org/2000/svg" xmlns:xlink="http://www.w3.org/1999/xlink">
    <!-- Generator: Sketch 49 (51002) - http://www.bohemiancoding.com/sketch -->
    <title>icon_关 copy</title>
    <desc>Created with Sketch.</desc>
    <defs></defs>
    <g id="icon_关-copy" stroke="none" stroke-width="1" fill="none" fill-rule="evenodd">
        <g id="Group" transform="translate(4.000000, 4.000000)" fill="#FFFFFF" fill-rule="nonzero">
            <path d="M-0.306770072,1.10744349 C-0.697294364,0.716919198 -0.697294364,0.0837542195 -0.306770072,-0.306770072 C0.0837542195,-0.697294364 0.716919198,-0.697294364 1.10744349,-0.306770072 L14.3067701,12.8925565 C14.6972944,13.2830808 14.6972944,13.9162458 14.3067701,14.3067701 C13.9162458,14.6972944 13.2830808,14.6972944 12.8925565,14.3067701 L-0.306770072,1.10744349 Z" id="Line-3"></path>
            <path d="M12.8925565,-0.306770072 C13.2830808,-0.697294364 13.9162458,-0.697294364 14.3067701,-0.306770072 C14.6972944,0.0837542195 14.6972944,0.716919198 14.3067701,1.10744349 L1.10744349,14.3067701 C0.716919198,14.6972944 0.0837542195,14.6972944 -0.306770072,14.3067701 C-0.697294364,13.9162458 -0.697294364,13.2830808 -0.306770072,12.8925565 L12.8925565,-0.306770072 Z" id="Line-3"></path>
        </g>
    </g>
</svg>