<?xml version="1.0" encoding="UTF-8"?>
<svg width="22px" height="22px" viewBox="0 0 22 22" version="1.1" xmlns="http://www.w3.org/2000/svg" xmlns:xlink="http://www.w3.org/1999/xlink">
    <!-- Generator: Sketch 49 (51002) - http://www.bohemiancoding.com/sketch -->
    <title>icon_店铺 copy 7</title>
    <desc>Created with Sketch.</desc>
    <defs></defs>
    <g id="icon_店铺-copy-7" stroke="none" stroke-width="1" fill="none" fill-rule="evenodd">
        <g id="Group" transform="translate(2.500000, 2.500000)" fill="#333333" fill-rule="nonzero">
            <path d="M0.604534774,6.24678025 C0.633567562,6.35483713 0.626802315,6.47442466 0.573207772,6.58814935 C0.52448472,6.69153699 0.5,6.79785446 0.5,6.90625 C0.5,7.47395382 1.20139491,8 2.125,8 C3.04860509,8 3.75,7.47395382 3.75,6.90625 C3.75,6.79785446 3.72551528,6.69153699 3.67679223,6.58814935 C3.52049931,6.25650435 3.76245574,5.875 4.12908346,5.875 L4.37091654,5.875 C4.73754426,5.875 4.97950069,6.25650435 4.82320777,6.58814935 C4.77448472,6.69153699 4.75,6.79785446 4.75,6.90625 C4.75,7.47395382 5.45139491,8 6.375,8 C7.29860509,8 8,7.47395382 8,6.90625 C8,6.79785446 7.97551528,6.69153699 7.92679223,6.58814935 C7.77049931,6.25650435 8.01245574,5.875 8.37908346,5.875 L8.62091654,5.875 C8.98754426,5.875 9.22950069,6.25650435 9.07320777,6.58814935 C9.02448472,6.69153699 9,6.79785446 9,6.90625 C9,7.47395382 9.70139491,8 10.625,8 C11.5486051,8 12.25,7.47395382 12.25,6.90625 C12.25,6.79785446 12.2255153,6.69153699 12.1767922,6.58814935 C12.0204993,6.25650435 12.2624557,5.875 12.6290835,5.875 L12.8709165,5.875 C13.2375443,5.875 13.4795007,6.25650435 13.3232078,6.58814935 C13.2744847,6.69153699 13.25,6.79785446 13.25,6.90625 C13.25,7.47395382 13.9513949,8 14.875,8 C15.7986051,8 16.5,7.47395382 16.5,6.90625 C16.5,6.79785446 16.4755153,6.69153699 16.4267922,6.58814935 C16.3727337,6.4734402 16.3663188,6.35276625 16.3962272,6.24397665 L14.0025983,0.798789409 C13.9227856,0.617225956 13.7432025,0.5 13.544871,0.5 L3.48999848,0.5 C3.29258189,0.5 3.11364738,0.616159988 3.03329205,0.796482837 L0.604534774,6.24678025 Z M10.625,9 C9.76252854,9 8.98161654,8.66928229 8.5,8.14335329 C8.01838346,8.66928229 7.23747146,9 6.375,9 C5.51252854,9 4.73161654,8.66928229 4.25,8.14335329 C3.76838346,8.66928229 2.98747146,9 2.125,9 C0.701394907,9 -0.5,8.09895382 -0.5,6.90625 C-0.5,6.78918822 -0.488067491,6.67343802 -0.464687523,6.55996579 C-0.51233,6.44121363 -0.515319924,6.30301552 -0.456706431,6.17148284 L2.11987919,0.389448511 C2.36094517,-0.151520036 2.89774872,-0.5 3.48999848,-0.5 L13.544871,-0.5 C14.1398654,-0.5 14.6786146,-0.148322131 14.918053,0.396368227 L17.4577273,6.17378941 C17.5152766,6.30470644 17.5120337,6.44195548 17.4646882,6.55996899 C17.4880677,6.6734402 17.5,6.78918932 17.5,6.90625 C17.5,8.09895382 16.2986051,9 14.875,9 C14.0125285,9 13.2316165,8.66928229 12.75,8.14335329 C12.2683835,8.66928229 11.4874715,9 10.625,9 Z" id="Combined-Shape"></path>
            <path d="M15.0833333,12.75 C15.0833333,12.4738576 15.307191,12.25 15.5833333,12.25 C15.8594757,12.25 16.0833333,12.4738576 16.0833333,12.75 L16.0833333,16 C16.0833333,16.8284271 15.4117605,17.5 14.5833333,17.5 L2.41666667,17.5 C1.58823954,17.5 0.916666667,16.8284271 0.916666667,16 L0.916666667,12.75 C0.916666667,12.4738576 1.14052429,12.25 1.41666667,12.25 C1.69280904,12.25 1.91666667,12.4738576 1.91666667,12.75 L1.91666667,16 C1.91666667,16.2761424 2.14052429,16.5 2.41666667,16.5 L14.5833333,16.5 C14.8594757,16.5 15.0833333,16.2761424 15.0833333,16 L15.0833333,12.75 Z" id="Rectangle"></path>
            <path d="M4.95833333,13.9583333 C4.68219096,13.9583333 4.45833333,13.7344757 4.45833333,13.4583333 C4.45833333,13.182191 4.68219096,12.9583333 4.95833333,12.9583333 L12.0416667,12.9583333 C12.317809,12.9583333 12.5416667,13.182191 12.5416667,13.4583333 C12.5416667,13.7344757 12.317809,13.9583333 12.0416667,13.9583333 L4.95833333,13.9583333 Z" id="Line"></path>
        </g>
    </g>
</svg>