<?xml version="1.0" encoding="UTF-8"?>
<svg width="22px" height="22px" viewBox="0 0 22 22" version="1.1" xmlns="http://www.w3.org/2000/svg" xmlns:xlink="http://www.w3.org/1999/xlink">
    <!-- Generator: Sketch 49 (51002) - http://www.bohemiancoding.com/sketch -->
    <title>icon_店铺 copy 3</title>
    <desc>Created with Sketch.</desc>
    <defs></defs>
    <g id="icon_店铺-copy-3" stroke="none" stroke-width="1" fill="none" fill-rule="evenodd">
        <g id="Group" transform="translate(3.000000, 3.000000)" fill="#333333" fill-rule="nonzero">
            <path d="M0.566095034,6.21314935 C0.522060513,6.30658819 0.5,6.40237927 0.5,6.5 C0.5,7.01592712 1.1454305,7.5 2,7.5 C2.8545695,7.5 3.5,7.01592712 3.5,6.5 C3.5,6.40237927 3.47793949,6.30658819 3.43390497,6.21314935 C3.27761205,5.88150435 3.51956848,5.5 3.88619619,5.5 L4.11380381,5.5 C4.48043152,5.5 4.72238795,5.88150435 4.56609503,6.21314935 C4.52206051,6.30658819 4.5,6.40237927 4.5,6.5 C4.5,7.01592712 5.1454305,7.5 6,7.5 C6.8545695,7.5 7.5,7.01592712 7.5,6.5 C7.5,6.40237927 7.47793949,6.30658819 7.43390497,6.21314935 C7.27761205,5.88150435 7.51956848,5.5 7.88619619,5.5 L8.11380381,5.5 C8.48043152,5.5 8.72238795,5.88150435 8.56609503,6.21314935 C8.52206051,6.30658819 8.5,6.40237927 8.5,6.5 C8.5,7.01592712 9.1454305,7.5 10,7.5 C10.8545695,7.5 11.5,7.01592712 11.5,6.5 C11.5,6.40237927 11.4779395,6.30658819 11.433905,6.21314935 C11.277612,5.88150435 11.5195685,5.5 11.8861962,5.5 L12.1138038,5.5 C12.4804315,5.5 12.722388,5.88150435 12.566095,6.21314935 C12.5220605,6.30658819 12.5,6.40237927 12.5,6.5 C12.5,7.01592712 13.1454305,7.5 14,7.5 C14.8545695,7.5 15.5,7.01592712 15.5,6.5 C15.5,6.40237927 15.4779395,6.30658819 15.433905,6.21314935 C15.3815161,6.10198306 15.3738733,5.98521475 15.400673,5.87909025 L13.1674431,0.798789409 C13.0876304,0.617225956 12.9080473,0.5 12.7097158,0.5 L3.32289127,0.5 C3.12547469,0.5 2.94654017,0.616159988 2.86618484,0.796482837 L0.600026913,5.8818962 C0.625988667,5.98727076 0.618022572,6.10296196 0.566095034,6.21314935 Z M10,8.5 C9.19319098,8.5 8.46057683,8.19523232 8,7.70766573 C7.53942317,8.19523232 6.80680902,8.5 6,8.5 C5.19319098,8.5 4.46057683,8.19523232 4,7.70766573 C3.53942317,8.19523232 2.80680902,8.5 2,8.5 C0.6454305,8.5 -0.5,7.64092712 -0.5,6.5 C-0.5,6.39076229 -0.489157091,6.28271992 -0.467905444,6.17673699 C-0.512434986,6.05985669 -0.513971102,5.92498867 -0.456706431,5.79648284 L1.95277198,0.389448511 C2.19383796,-0.151520036 2.73064151,-0.5 3.32289127,-0.5 L12.7097158,-0.5 C13.3047102,-0.5 13.8434594,-0.148322131 14.0828978,0.396368227 L16.4577273,5.79878941 C16.513944,5.92667489 16.5121513,6.06060252 16.4679061,6.17674011 C16.4891573,6.28272204 16.5,6.39076336 16.5,6.5 C16.5,7.64092712 15.3545695,8.5 14,8.5 C13.193191,8.5 12.4605768,8.19523232 12,7.70766573 C11.5394232,8.19523232 10.806809,8.5 10,8.5 Z" id="Combined-Shape"></path>
            <path d="M14.1666667,12 C14.1666667,11.7238576 14.3905243,11.5 14.6666667,11.5 C14.942809,11.5 15.1666667,11.7238576 15.1666667,12 L15.1666667,15 C15.1666667,15.8284271 14.4950938,16.5 13.6666667,16.5 L2.33333333,16.5 C1.50490621,16.5 0.833333333,15.8284271 0.833333333,15 L0.833333333,12 C0.833333333,11.7238576 1.05719096,11.5 1.33333333,11.5 C1.60947571,11.5 1.83333333,11.7238576 1.83333333,12 L1.83333333,15 C1.83333333,15.2761424 2.05719096,15.5 2.33333333,15.5 L13.6666667,15.5 C13.942809,15.5 14.1666667,15.2761424 14.1666667,15 L14.1666667,12 Z" id="Rectangle"></path>
            <path d="M4.66666667,13.1666667 C4.39052429,13.1666667 4.16666667,12.942809 4.16666667,12.6666667 C4.16666667,12.3905243 4.39052429,12.1666667 4.66666667,12.1666667 L11.3333333,12.1666667 C11.6094757,12.1666667 11.8333333,12.3905243 11.8333333,12.6666667 C11.8333333,12.942809 11.6094757,13.1666667 11.3333333,13.1666667 L4.66666667,13.1666667 Z" id="Line"></path>
        </g>
    </g>
</svg>