<?xml version="1.0" encoding="UTF-8"?>
<svg width="30px" height="30px" viewBox="0 0 30 30" version="1.1" xmlns="http://www.w3.org/2000/svg" xmlns:xlink="http://www.w3.org/1999/xlink">
    <!-- Generator: Sketch 49 (51002) - http://www.bohemiancoding.com/sketch -->
    <title>icon-gwc</title>
    <desc>Created with Sketch.</desc>
    <defs></defs>
    <g id="icon-gwc" stroke="none" stroke-width="1" fill="none" fill-rule="evenodd">
        <g id="Group" transform="translate(1.300000, 3.700000)" fill="#333333" fill-rule="nonzero">
            <path d="M7.33412911,12.9932222 L23.2692619,12.7402184 C23.4878774,12.7367474 23.6788832,12.591635 23.7408338,12.3819521 L26.1413282,4.25705534 C26.1549178,4.21105894 26.1618187,4.16334653 26.1618187,4.11538462 C26.1618187,3.83924224 25.9379611,3.61538462 25.6618187,3.61538462 L5.7818729,3.61538462 L7.33412911,12.9932222 Z M5.19230769,2.61538462 L25.6618187,2.61538462 C26.4902458,2.61538462 27.1618187,3.28695749 27.1618187,4.11538462 C27.1618187,4.25927036 27.1411161,4.4024076 27.1003473,4.54039678 L24.6998529,12.6652935 C24.514001,13.2943423 23.9409836,13.7296794 23.285137,13.7400924 L6.91914724,13.999937 C6.67154195,14.0038682 6.45836113,13.8259632 6.41792161,13.581651 L4.69901962,3.19703558 C4.64860104,2.89243553 4.8835631,2.61538462 5.19230769,2.61538462 Z" id="Rectangle-4"></path>
            <path d="M3.94597602,0.5 L0,0.5 C-0.276142375,0.5 -0.5,0.276142375 -0.5,0 C-0.5,-0.276142375 -0.276142375,-0.5 0,-0.5 L4.35997678,-0.5 C4.6001546,-0.5 4.80640085,-0.329227795 4.85120136,-0.0932653004 L8.12578718,17.1538462 L24.9230769,17.1538462 C25.1992193,17.1538462 25.4230769,17.3777038 25.4230769,17.6538462 C25.4230769,17.9299885 25.1992193,18.1538462 24.9230769,18.1538462 L7.71178642,18.1538462 C7.4716086,18.1538462 7.26536236,17.9830739 7.22056184,17.7471115 L3.94597602,0.5 Z" id="Path-2"></path>
            <path d="M9.34615385,23.4945055 C7.92295853,23.4945055 6.76923077,22.3407777 6.76923077,20.9175824 C6.76923077,19.4943871 7.92295853,18.3406593 9.34615385,18.3406593 C10.7693492,18.3406593 11.9230769,19.4943871 11.9230769,20.9175824 C11.9230769,22.3407777 10.7693492,23.4945055 9.34615385,23.4945055 Z M9.34615385,22.4945055 C10.2170644,22.4945055 10.9230769,21.788493 10.9230769,20.9175824 C10.9230769,20.0466719 10.2170644,19.3406593 9.34615385,19.3406593 C8.47524328,19.3406593 7.76923077,20.0466719 7.76923077,20.9175824 C7.76923077,21.788493 8.47524328,22.4945055 9.34615385,22.4945055 Z" id="Oval"></path>
            <path d="M21.8076923,23.4945055 C20.384497,23.4945055 19.2307692,22.3407777 19.2307692,20.9175824 C19.2307692,19.4943871 20.384497,18.3406593 21.8076923,18.3406593 C23.2308876,18.3406593 24.3846154,19.4943871 24.3846154,20.9175824 C24.3846154,22.3407777 23.2308876,23.4945055 21.8076923,23.4945055 Z M21.8076923,22.4945055 C22.6786029,22.4945055 23.3846154,21.788493 23.3846154,20.9175824 C23.3846154,20.0466719 22.6786029,19.3406593 21.8076923,19.3406593 C20.9367817,19.3406593 20.2307692,20.0466719 20.2307692,20.9175824 C20.2307692,21.788493 20.9367817,22.4945055 21.8076923,22.4945055 Z" id="Oval-Copy"></path>
        </g>
    </g>
</svg>