<?xml version="1.0" encoding="UTF-8"?>
<svg width="22px" height="22px" viewBox="0 0 22 22" version="1.1" xmlns="http://www.w3.org/2000/svg" xmlns:xlink="http://www.w3.org/1999/xlink">
    <!-- Generator: Sketch 49 (51002) - http://www.bohemiancoding.com/sketch -->
    <title>icon-转发 copy 6</title>
    <desc>Created with Sketch.</desc>
    <defs></defs>
    <g id="icon-转发-copy-6" stroke="none" stroke-width="1" fill="none" fill-rule="evenodd">
        <g id="Group-2" transform="translate(0.800000, -0.600000)" fill="#FFFFFF" fill-rule="nonzero">
            <path d="M10.0909091,1.81818182 C10.6431938,1.81818182 11.0909091,2.26589707 11.0909091,2.81818182 C11.0909091,3.37046657 10.6431938,3.81818182 10.0909091,3.81818182 C5.62242339,3.81818182 2,7.44060521 2,11.9090909 C2,16.3775766 5.62242339,20 10.0909091,20 C14.5593948,20 18.1818182,16.3775766 18.1818182,11.9090909 C18.1818182,11.3568062 18.6295334,10.9090909 19.1818182,10.9090909 C19.7341029,10.9090909 20.1818182,11.3568062 20.1818182,11.9090909 C20.1818182,17.4821461 15.6639643,22 10.0909091,22 C4.51785389,22 0,17.4821461 0,11.9090909 C0,6.33603571 4.51785389,1.81818182 10.0909091,1.81818182 Z" id="Oval-19"></path>
            <g id="Group" transform="translate(14.909180, 7.493479) rotate(9.000000) translate(-14.909180, -7.493479) translate(9.409180, 0.993479)">
                <path d="M1.799397,12.4092388 C1.46758257,12.8507336 0.840691604,12.9396471 0.399196834,12.6078327 C-0.0422979353,12.2760182 -0.131211421,11.6491273 0.200603005,11.2076325 L7.57233349,1.39919683 C7.90414792,0.957702065 8.53103889,0.868788579 8.97253366,1.200603 C9.41402842,1.53241743 9.50294191,2.1593084 9.17112748,2.60080317 L1.799397,12.4092388 Z" id="Line"></path>
                <path d="M4.93961,2.62756994 L4.93961,7.0821154 C4.93961,7.63440015 4.49189475,8.0821154 3.93961,8.0821154 C3.38732525,8.0821154 2.93961,7.63440015 2.93961,7.0821154 L2.93961,1.62756994 C2.93961,1.07528519 3.38732525,0.627569942 3.93961,0.627569942 L9.39415545,0.627569942 C9.9464402,0.627569942 10.3941555,1.07528519 10.3941555,1.62756994 C10.3941555,2.17985469 9.9464402,2.62756994 9.39415545,2.62756994 L4.93961,2.62756994 Z" id="Rectangle" transform="translate(6.666883, 4.354843) rotate(81.000000) translate(-6.666883, -4.354843) "></path>
            </g>
        </g>
    </g>
</svg>