<?xml version="1.0" encoding="UTF-8"?>
<svg width="22px" height="22px" viewBox="0 0 22 22" version="1.1" xmlns="http://www.w3.org/2000/svg" xmlns:xlink="http://www.w3.org/1999/xlink">
    <!-- Generator: Sketch 49 (51002) - http://www.bohemiancoding.com/sketch -->
    <title>icon-关注-未选中 copy 2</title>
    <desc>Created with Sketch.</desc>
    <defs></defs>
    <g id="icon-关注-未选中-copy-2" stroke="none" stroke-width="1" fill="none" fill-rule="evenodd">
        <rect id="Rectangle-3" x="0" y="0" width="22" height="22"></rect>
        <g id="Group" transform="translate(2.000000, 2.000000)" fill="#333333" fill-rule="nonzero">
            <path d="M9,18.5 C3.75329488,18.5 -0.5,14.2467051 -0.5,9 C-0.5,3.75329488 3.75329488,-0.5 9,-0.5 C14.2467051,-0.5 18.5,3.75329488 18.5,9 C18.5,14.2467051 14.2467051,18.5 9,18.5 Z M9,17.5 C13.6944204,17.5 17.5,13.6944204 17.5,9 C17.5,4.30557963 13.6944204,0.5 9,0.5 C4.30557963,0.5 0.5,4.30557963 0.5,9 C0.5,13.6944204 4.30557963,17.5 9,17.5 Z" id="Oval"></path>
            <path d="M14.3386244,8.34883109 C14.0122855,11.4923317 10.5238866,14.2460535 8.99787332,14.2460535 C7.37525231,14.2460535 3.95066345,11.6170358 3.65645477,8.34193749 C3.37433031,5.20135926 6.68324499,3.62349611 8.9980399,5.76034596 C11.3192083,3.62121382 14.6645037,5.20975822 14.3386244,8.34883109 Z M9.58347273,12.9758225 C10.0717207,12.7323291 10.5822025,12.4146783 11.0584112,12.0387619 C12.3521504,11.0174917 13.187917,9.74877178 13.3439699,8.24557216 C13.5864273,5.91007099 11.0572473,4.8407097 9.37798453,6.80574912 L8.99787332,7.2505476 L8.61776211,6.80574912 C6.94045588,4.84299919 4.44144715,5.90367073 4.65244414,8.25246576 C4.79375269,9.82549693 5.62253682,11.1029581 6.91793724,12.0974222 C7.73874143,12.7275442 8.85255741,13.2460535 8.99787332,13.2460535 C8.96929963,13.2460535 9.28081297,13.1267614 9.58347273,12.9758225 Z" id="Oval-4"></path>
        </g>
    </g>
</svg>