<?xml version="1.0" encoding="UTF-8"?>
<svg width="16px" height="16px" viewBox="0 0 16 16" version="1.1" xmlns="http://www.w3.org/2000/svg" xmlns:xlink="http://www.w3.org/1999/xlink">
    <!-- Generator: Sketch 49 (51002) - http://www.bohemiancoding.com/sketch -->
    <title>icon-消息-未选中 copy 4</title>
    <desc>Created with Sketch.</desc>
    <defs></defs>
    <g id="icon-消息-未选中-copy-4" stroke="none" stroke-width="1" fill="none" fill-rule="evenodd">
        <g id="Group-2" fill="#333333" fill-rule="nonzero">
            <path d="M3,1.5 C2.17157288,1.5 1.5,2.17157288 1.5,3 L1.5,13 C1.5,13.8284271 2.17157288,14.5 3,14.5 L13,14.5 C13.8284271,14.5 14.5,13.8284271 14.5,13 L14.5,3 C14.5,2.17157288 13.8284271,1.5 13,1.5 L3,1.5 Z M3,0.5 L13,0.5 C14.3807119,0.5 15.5,1.61928813 15.5,3 L15.5,13 C15.5,14.3807119 14.3807119,15.5 13,15.5 L3,15.5 C1.61928813,15.5 0.5,14.3807119 0.5,13 L0.5,3 C0.5,1.61928813 1.61928813,0.5 3,0.5 Z" id="Rectangle-12"></path>
            <g id="Group" transform="translate(4.500000, 4.666667)">
                <path d="M3.03865896,2.16844783 L5.02200119,4.17192604 C5.21627466,4.36817188 5.21467574,4.68475033 5.0184299,4.8790238 C4.82218406,5.07329727 4.50560561,5.07169835 4.31133214,4.87545251 L1.97799881,2.5184299 C1.78441878,2.32288455 1.78521477,2.00767845 1.97977994,1.81311328 L4.31311328,-0.520220057 C4.50837542,-0.715482203 4.82495791,-0.715482203 5.02022006,-0.520220057 C5.2154822,-0.324957911 5.2154822,-0.00837542195 5.02022006,0.186886724 L3.03865896,2.16844783 Z" id="Line-2" transform="translate(3.500000, 2.178511) rotate(90.000000) translate(-3.500000, -2.178511) "></path>
                <path d="M3,2.16666667 C3,1.89052429 3.22385763,1.66666667 3.5,1.66666667 C3.77614237,1.66666667 4,1.89052429 4,2.16666667 L4,6.83333333 C4,7.10947571 3.77614237,7.33333333 3.5,7.33333333 C3.22385763,7.33333333 3,7.10947571 3,6.83333333 L3,2.16666667 Z" id="Line"></path>
            </g>
        </g>
    </g>
</svg>