<?xml version="1.0" encoding="UTF-8"?>
<svg width="22px" height="22px" viewBox="0 0 22 22" version="1.1" xmlns="http://www.w3.org/2000/svg" xmlns:xlink="http://www.w3.org/1999/xlink">
    <!-- Generator: Sketch 49 (51002) - http://www.bohemiancoding.com/sketch -->
    <title>icon_收藏</title>
    <desc>Created with Sketch.</desc>
    <defs></defs>
    <g id="icon_收藏" stroke="none" stroke-width="1" fill="none" fill-rule="evenodd">
        <path d="M10.7673294,15.4574344 C10.9129914,15.3808553 11.0870086,15.3808553 11.2326706,15.4574344 L15.6260018,17.7671453 L14.7869502,12.8750991 C14.7591312,12.7129021 14.8129054,12.547402 14.9307485,12.4325334 L18.4850281,8.96796705 L13.5731345,8.25422713 C13.4102794,8.2305629 13.2694966,8.12827821 13.1966656,7.98070648 L11,3.52977583 L8.8033344,7.98070648 C8.7305034,8.12827821 8.5897206,8.2305629 8.42686552,8.25422713 L3.51497192,8.96796705 L7.06925152,12.4325334 C7.18709457,12.547402 7.24086881,12.7129021 7.21304984,12.8750991 L6.37399824,17.7671453 L10.7673294,15.4574344 Z M5.94260329,19.1237188 C5.5757896,19.3165641 5.14707339,19.0050836 5.21712857,18.5966305 L6.18300539,12.9651365 L2.09148551,8.97689033 C1.794727,8.68762227 1.95848202,8.18363613 2.3685922,8.12404364 L8.02293361,7.30241974 L10.551632,2.17871724 C10.7350388,1.80709438 11.2649612,1.80709438 11.448368,2.17871724 L13.9770664,7.30241974 L19.6314078,8.12404364 C20.041518,8.18363613 20.205273,8.68762227 19.9085145,8.97689033 L15.8169946,12.9651365 L16.7828714,18.5966305 C16.8529266,19.0050836 16.4242104,19.3165641 16.0573967,19.1237188 L11,16.464888 L5.94260329,19.1237188 Z" id="Star" fill="#333333" fill-rule="nonzero"></path>
    </g>
</svg>