<?xml version="1.0" encoding="UTF-8"?>
<svg width="40px" height="40px" viewBox="0 0 40 40" version="1.1" xmlns="http://www.w3.org/2000/svg" xmlns:xlink="http://www.w3.org/1999/xlink">
    <!-- Generator: Sketch 49 (51002) - http://www.bohemiancoding.com/sketch -->
    <title>icon_qq copy</title>
    <desc>Created with Sketch.</desc>
    <defs></defs>
    <g id="icon_qq-copy" stroke="none" stroke-width="1" fill="none" fill-rule="evenodd">
        <g>
            <circle id="Oval-5" fill="#80CD59" cx="20" cy="20" r="20"></circle>
            <g id="微信" transform="translate(8.000000, 10.000000)" fill="#FFFFFF">
                <path d="M9.00509516,14.7992493 C8.86022596,14.8055444 8.7144083,14.8087298 8.56772976,14.8087298 C7.35676121,14.8087298 6.20447115,14.5916108 5.16013796,14.19996 C4.52616903,14.9124157 3.47049149,15.9166456 2.44577341,16.0698671 C2.34537256,16.07146 2.36233037,16.0032709 2.38551764,15.9643378 C2.84151012,15.1986924 3.02275414,13.9915918 3.09440832,13.1011478 C1.20374487,11.7429603 0,9.69514955 0,7.4043649 C0,3.31504708 3.83590327,0 8.56772976,0 C12.8202158,0 16.3491011,2.67742838 17.020424,6.18808232 C16.985257,6.1876947 16.9500312,6.18750027 16.9147527,6.18750027 C12.4301401,6.18750027 8.7946432,9.32935303 8.7946432,13.2050248 C8.7946432,13.7533975 8.86742476,14.2870793 9.00509516,14.7992493 Z M11.9636694,6.42857147 C12.7523072,6.42857147 13.3916244,5.78897825 13.3916244,5.00000002 C13.3916244,4.2110218 12.7523072,3.57142857 11.9636694,3.57142857 C11.1750317,3.57142857 10.5357145,4.2110218 10.5357145,5.00000002 C10.5357145,5.78897825 11.1750317,6.42857147 11.9636694,6.42857147 Z M5.53509773,6.42857147 C6.32373548,6.42857147 6.96305269,5.78897825 6.96305269,5.00000002 C6.96305269,4.2110218 6.32373548,3.57142857 5.53509773,3.57142857 C4.74645998,3.57142857 4.10714277,4.2110218 4.10714277,5.00000002 C4.10714277,5.78897825 4.74645998,6.42857147 5.53509773,6.42857147 Z" id="Combined-Shape"></path>
                <path d="M22.29214,18.0257064 C22.3371014,18.7725395 22.4657063,19.7802081 22.820807,20.4247458 C22.8493784,20.4766053 22.8194375,20.5363631 22.7252886,20.5375046 C21.817677,20.4300116 20.9253799,19.5644095 20.410424,18.9694486 C19.4903149,19.2913108 18.4761539,19.4696104 17.4107143,19.4696104 C13.2192675,19.4696104 9.82142857,16.7101727 9.82142857,13.3062338 C9.82142857,9.90229485 13.2192675,7.14285714 17.4107143,7.14285714 C21.602161,7.14285714 25,9.90229485 25,13.3062338 C25,15.2004609 23.9477877,16.8951046 22.29214,18.0257064 Z M14.5535713,13.3928574 C15.3425495,13.3928574 15.9821427,12.7532641 15.9821427,11.9642859 C15.9821427,11.1753077 15.3425495,10.5357145 14.5535713,10.5357145 C13.7645931,10.5357145 13.1249998,11.1753077 13.1249998,11.9642859 C13.1249998,12.7532641 13.7645931,13.3928574 14.5535713,13.3928574 Z M20.4464279,13.3928574 C21.2354061,13.3928574 21.8749994,12.7532641 21.8749994,11.9642859 C21.8749994,11.1753077 21.2354061,10.5357145 20.4464279,10.5357145 C19.6574497,10.5357145 19.0178565,11.1753077 19.0178565,11.9642859 C19.0178565,12.7532641 19.6574497,13.3928574 20.4464279,13.3928574 Z" id="Combined-Shape"></path>
            </g>
        </g>
    </g>
</svg>