<?xml version="1.0" encoding="UTF-8"?>
<svg width="32px" height="32px" viewBox="0 0 32 32" version="1.1" xmlns="http://www.w3.org/2000/svg" xmlns:xlink="http://www.w3.org/1999/xlink">
    <!-- Generator: Sketch 49 (51002) - http://www.bohemiancoding.com/sketch -->
    <title>icon_已完成</title>
    <desc>Created with Sketch.</desc>
    <defs></defs>
    <g id="icon_已完成" stroke="none" stroke-width="1" fill="none" fill-rule="evenodd">
        <circle id="Oval-2" fill="#EBEBEB" cx="16" cy="16" r="16"></circle>
        <g id="Group" transform="translate(8.000000, 8.000000)" fill="#999999" fill-rule="nonzero">
            <path d="M8,15.5 C3.85786438,15.5 0.5,12.1421356 0.5,8 C0.5,3.85786438 3.85786438,0.5 8,0.5 C12.1421356,0.5 15.5,3.85786438 15.5,8 L15.5,15 C15.5,15.2761424 15.2761424,15.5 15,15.5 L8,15.5 Z M14.5,14.5 L14.5,8 C14.5,4.41014913 11.5898509,1.5 8,1.5 C4.41014913,1.5 1.5,4.41014913 1.5,8 C1.5,11.5898509 4.41014913,14.5 8,14.5 L14.5,14.5 Z" id="Oval-11" transform="translate(8.000000, 8.000000) scale(-1, 1) translate(-8.000000, -8.000000) "></path>
            <path d="M11.3521712,5.99582205 C11.5339708,5.78796749 11.8498479,5.76684576 12.0577025,5.94864535 C12.2655571,6.13044493 12.2866788,6.44632204 12.1048792,6.6541766 L7.94025612,11.4156611 C7.76840472,11.6121417 7.47432672,11.6433624 7.26505235,11.4873439 L3.70115022,8.83037846 C3.47976131,8.66532829 3.43408974,8.35205751 3.59913992,8.1306686 C3.76419009,7.90927968 4.07746087,7.86360812 4.29884978,8.02865829 L7.4920007,10.4092207 L11.3521712,5.99582205 Z" id="Path-3"></path>
        </g>
    </g>
</svg>