<?xml version="1.0" encoding="UTF-8"?>
<svg width="22px" height="22px" viewBox="0 0 22 22" version="1.1" xmlns="http://www.w3.org/2000/svg" xmlns:xlink="http://www.w3.org/1999/xlink">
    <!-- Generator: Sketch 49 (51002) - http://www.bohemiancoding.com/sketch -->
    <title>icon_足迹 copy</title>
    <desc>Created with Sketch.</desc>
    <defs></defs>
    <g id="icon_足迹-copy" stroke="none" stroke-width="1" fill="none" fill-rule="evenodd">
        <g id="Group" transform="translate(2.000000, 5.000000)" fill="#333333" fill-rule="nonzero">
            <path d="M0.785714286,2.57142857 C0.785714286,2.2952862 1.00957191,2.07142857 1.28571429,2.07142857 C1.56185666,2.07142857 1.78571429,2.2952862 1.78571429,2.57142857 L1.78571429,12.8571429 C1.78571429,13.1332852 1.56185666,13.3571429 1.28571429,13.3571429 C1.00957191,13.3571429 0.785714286,13.1332852 0.785714286,12.8571429 L0.785714286,2.57142857 Z" id="Line"></path>
            <path d="M5.92857143,0 C5.92857143,-0.276142375 6.15242905,-0.5 6.42857143,-0.5 C6.7047138,-0.5 6.92857143,-0.276142375 6.92857143,0 L6.92857143,12.8571429 C6.92857143,13.1332852 6.7047138,13.3571429 6.42857143,13.3571429 C6.15242905,13.3571429 5.92857143,13.1332852 5.92857143,12.8571429 L5.92857143,0 Z" id="Line-Copy"></path>
            <path d="M11.0714286,5.14285714 C11.0714286,4.86671477 11.2952862,4.64285714 11.5714286,4.64285714 C11.8475709,4.64285714 12.0714286,4.86671477 12.0714286,5.14285714 L12.0714286,12.8571429 C12.0714286,13.1332852 11.8475709,13.3571429 11.5714286,13.3571429 C11.2952862,13.3571429 11.0714286,13.1332852 11.0714286,12.8571429 L11.0714286,5.14285714 Z" id="Line-Copy-2"></path>
            <path d="M16.2142857,1.28571429 C16.2142857,1.00957191 16.4381433,0.785714286 16.7142857,0.785714286 C16.9904281,0.785714286 17.2142857,1.00957191 17.2142857,1.28571429 L17.2142857,12.8571429 C17.2142857,13.1332852 16.9904281,13.3571429 16.7142857,13.3571429 C16.4381433,13.3571429 16.2142857,13.1332852 16.2142857,12.8571429 L16.2142857,1.28571429 Z" id="Line-Copy-3"></path>
        </g>
    </g>
</svg>