<?xml version="1.0" encoding="UTF-8"?>
<svg width="20px" height="20px" viewBox="0 0 20 20" version="1.1" xmlns="http://www.w3.org/2000/svg" xmlns:xlink="http://www.w3.org/1999/xlink">
    <!-- Generator: Sketch 49 (51002) - http://www.bohemiancoding.com/sketch -->
    <title>icon_会员</title>
    <desc>Created with Sketch.</desc>
    <defs>
        <circle id="path-1" cx="9" cy="9" r="9"></circle>
    </defs>
    <g id="icon_会员" stroke="none" stroke-width="1" fill="none" fill-rule="evenodd">
        <g id="Group-3">
            <g id="Group" transform="translate(1.000000, 1.000000)">
                <mask id="mask-2" fill="white">
                    <use xlink:href="#path-1"></use>
                </mask>
                <use id="Mask" fill="#FFAD3D" xlink:href="#path-1"></use>
                <circle id="Oval-2" fill="#FFCB3D" mask="url(#mask-2)" cx="-1.5" cy="-0.5" r="12.5"></circle>
            </g>
            <path d="M10,19.5 C4.75329488,19.5 0.5,15.2467051 0.5,10 C0.5,4.75329488 4.75329488,0.5 10,0.5 C15.2467051,0.5 19.5,4.75329488 19.5,10 C19.5,15.2467051 15.2467051,19.5 10,19.5 Z M10,18.5 C14.6944204,18.5 18.5,14.6944204 18.5,10 C18.5,5.30557963 14.6944204,1.5 10,1.5 C5.30557963,1.5 1.5,5.30557963 1.5,10 C1.5,14.6944204 5.30557963,18.5 10,18.5 Z" id="Mask" fill="#FFFFFF" fill-rule="nonzero"></path>
            <polygon id="V6" fill="#FFFFFF" points="5 6.5 8.7784027 6.5 10.9831271 12.0466817 14.0714286 6.5 15 6.5 10.7930259 14.5314961 8.35714286 14.5314961"></polygon>
        </g>
    </g>
</svg>