<?xml version="1.0" encoding="UTF-8"?>
<svg width="30px" height="30px" viewBox="0 0 30 30" version="1.1" xmlns="http://www.w3.org/2000/svg" xmlns:xlink="http://www.w3.org/1999/xlink">
    <!-- Generator: Sketch 49 (51002) - http://www.bohemiancoding.com/sketch -->
    <title>icon-gwc copy</title>
    <desc>Created with Sketch.</desc>
    <defs></defs>
    <g id="icon-gwc-copy" stroke="none" stroke-width="1" fill="none" fill-rule="evenodd">
        <g id="Group" transform="translate(0.300000, 2.700000)" fill="#333333" fill-rule="nonzero">
            <path d="M6.19230769,3.61538462 L26.6618187,3.61538462 C27.4902458,3.61538462 28.1618187,4.28695749 28.1618187,5.11538462 C28.1618187,5.25927036 28.1411161,5.4024076 28.1003473,5.54039678 L25.6998529,13.6652935 C25.514001,14.2943423 24.9409836,14.7296794 24.285137,14.7400924 L7.91914724,14.999937 C7.67154195,15.0038682 7.45836113,14.8259632 7.41792161,14.581651 L5.69901962,4.19703558 C5.64860104,3.89243553 5.8835631,3.61538462 6.19230769,3.61538462 Z" id="Rectangle-4"></path>
            <path d="M4.94597602,1.5 L1,1.5 C0.723857625,1.5 0.5,1.27614237 0.5,1 C0.5,0.723857625 0.723857625,0.5 1,0.5 L5.35997678,0.5 C5.6001546,0.5 5.80640085,0.670772205 5.85120136,0.9067347 L9.12578718,18.1538462 L25.9230769,18.1538462 C26.1992193,18.1538462 26.4230769,18.3777038 26.4230769,18.6538462 C26.4230769,18.9299885 26.1992193,19.1538462 25.9230769,19.1538462 L8.71178642,19.1538462 C8.4716086,19.1538462 8.26536236,18.9830739 8.22056184,18.7471115 L4.94597602,1.5 Z" id="Path-2"></path>
            <path d="M10.3461538,24.4945055 C8.92295853,24.4945055 7.76923077,23.3407777 7.76923077,21.9175824 C7.76923077,20.4943871 8.92295853,19.3406593 10.3461538,19.3406593 C11.7693492,19.3406593 12.9230769,20.4943871 12.9230769,21.9175824 C12.9230769,23.3407777 11.7693492,24.4945055 10.3461538,24.4945055 Z" id="Oval"></path>
            <path d="M22.8076923,24.4945055 C21.384497,24.4945055 20.2307692,23.3407777 20.2307692,21.9175824 C20.2307692,20.4943871 21.384497,19.3406593 22.8076923,19.3406593 C24.2308876,19.3406593 25.3846154,20.4943871 25.3846154,21.9175824 C25.3846154,23.3407777 24.2308876,24.4945055 22.8076923,24.4945055 Z" id="Oval-Copy"></path>
        </g>
    </g>
</svg>