<?xml version="1.0" encoding="UTF-8"?>
<svg width="30px" height="30px" viewBox="0 0 30 30" version="1.1" xmlns="http://www.w3.org/2000/svg" xmlns:xlink="http://www.w3.org/1999/xlink">
    <!-- Generator: Sketch 49 (51002) - http://www.bohemiancoding.com/sketch -->
    <title>icon-我的-未选中 copy@3x</title>
    <desc>Created with Sketch.</desc>
    <defs></defs>
    <g id="icon-我的-未选中-copy" stroke="none" stroke-width="1" fill="none" fill-rule="evenodd">
        <g id="Group" transform="translate(2.000000, 2.000000)" fill="#333333" fill-rule="nonzero">
            <path d="M13,25.5 C6.09644063,25.5 0.5,19.9035594 0.5,13 C0.5,6.09644063 6.09644063,0.5 13,0.5 C19.9035594,0.5 25.5,6.09644063 25.5,13 C25.5,19.9035594 19.9035594,25.5 13,25.5 Z M7.31622286,16.4682162 C8.47768496,18.4831643 10.6260262,19.7517483 12.9950111,19.7517483 C15.3494088,19.7517483 17.4864879,18.4988062 18.6532474,16.5036143 C18.7926457,16.2652392 18.7124092,15.9589933 18.474034,15.8195949 C18.2356589,15.6801966 17.929413,15.7604331 17.7900146,15.9988082 C16.8008167,17.6903647 14.9904692,18.7517483 12.9950111,18.7517483 C10.9872042,18.7517483 9.1672861,17.6770964 8.18259598,15.968819 C8.04469123,15.7295766 7.73895312,15.6474263 7.49971079,15.785331 C7.26046846,15.9232358 7.17831811,16.2289739 7.31622286,16.4682162 Z" id="Combined-Shape"></path>
        </g>
    </g>
</svg>