<?xml version="1.0" encoding="UTF-8"?>
<svg width="16px" height="16px" viewBox="0 0 16 16" version="1.1" xmlns="http://www.w3.org/2000/svg" xmlns:xlink="http://www.w3.org/1999/xlink">
    <!-- Generator: Sketch 49 (51002) - http://www.bohemiancoding.com/sketch -->
    <title>icon-转发 copy 7</title>
    <desc>Created with Sketch.</desc>
    <defs></defs>
    <g id="icon-转发-copy-7" stroke="none" stroke-width="1" fill="none" fill-rule="evenodd">
        <g id="Group-2" transform="translate(0.500000, -0.400000)" fill="#333333" fill-rule="nonzero">
            <path d="M7.36363636,1.77272727 C7.63977874,1.77272727 7.86363636,1.9965849 7.86363636,2.27272727 C7.86363636,2.54886965 7.63977874,2.77272727 7.36363636,2.77272727 C4.12523942,2.77272727 1.5,5.39796669 1.5,8.63636364 C1.5,11.8747606 4.12523942,14.5 7.36363636,14.5 C10.6020333,14.5 13.2272727,11.8747606 13.2272727,8.63636364 C13.2272727,8.36022126 13.4511304,8.13636364 13.7272727,8.13636364 C14.0034151,8.13636364 14.2272727,8.36022126 14.2272727,8.63636364 C14.2272727,12.4270453 11.1543181,15.5 7.36363636,15.5 C3.57295467,15.5 0.5,12.4270453 0.5,8.63636364 C0.5,4.84568194 3.57295467,1.77272727 7.36363636,1.77272727 Z" id="Oval-19"></path>
            <g id="Group" transform="translate(10.564807, 5.670123) rotate(9.000000) translate(-10.564807, -5.670123) translate(6.564807, 0.670123)">
                <path d="M1.3996985,8.86630655 C1.23379128,9.08705394 0.920345802,9.13151068 0.699598417,8.96560347 C0.478851032,8.79969625 0.434394289,8.48625077 0.600301502,8.26550339 L5.76051285,1.39959842 C5.92642006,1.17885103 6.23986554,1.13439429 6.46061293,1.3003015 C6.68136031,1.46620872 6.72581705,1.7796542 6.55990984,2.00040158 L1.3996985,8.86630655 Z" id="Line"></path>
                <path d="M3.557727,1.93929896 L3.557727,5.25748078 C3.557727,5.53362315 3.33386937,5.75748078 3.057727,5.75748078 C2.78158462,5.75748078 2.557727,5.53362315 2.557727,5.25748078 L2.557727,1.43929896 C2.557727,1.16315658 2.78158462,0.939298959 3.057727,0.939298959 L6.87590882,0.939298959 C7.15205119,0.939298959 7.37590882,1.16315658 7.37590882,1.43929896 C7.37590882,1.71544133 7.15205119,1.93929896 6.87590882,1.93929896 L3.557727,1.93929896 Z" id="Rectangle" transform="translate(4.966818, 3.348390) rotate(81.000000) translate(-4.966818, -3.348390) "></path>
            </g>
        </g>
    </g>
</svg>