<?xml version="1.0" encoding="UTF-8"?>
<svg width="18px" height="18px" viewBox="0 0 18 18" version="1.1" xmlns="http://www.w3.org/2000/svg" xmlns:xlink="http://www.w3.org/1999/xlink">
    <!-- Generator: Sketch 49 (51002) - http://www.bohemiancoding.com/sketch -->
    <title>Oval 4</title>
    <desc>Created with Sketch.</desc>
    <defs></defs>
    <g id="Page-1" stroke="none" stroke-width="1" fill="none" fill-rule="evenodd">
        <g id="10-拿货车" transform="translate(-13.000000, -471.000000)" fill="#CCCCCC" fill-rule="nonzero">
            <g id="Group-Copy" transform="translate(0.000000, 460.000000)">
                <g id="Group-7">
                    <g id="Group-2" transform="translate(14.000000, 12.000000)">
                        <path d="M8,16.5 C3.30557963,16.5 -0.5,12.6944204 -0.5,8 C-0.5,3.30557963 3.30557963,-0.5 8,-0.5 C12.6944204,-0.5 16.5,3.30557963 16.5,8 C16.5,12.6944204 12.6944204,16.5 8,16.5 Z M8,15.5 C12.1421356,15.5 15.5,12.1421356 15.5,8 C15.5,3.85786438 12.1421356,0.5 8,0.5 C3.85786438,0.5 0.5,3.85786438 0.5,8 C0.5,12.1421356 3.85786438,15.5 8,15.5 Z" id="Oval-4"></path>
                    </g>
                </g>
            </g>
        </g>
    </g>
</svg>