<?xml version="1.0" encoding="UTF-8"?>
<svg width="16px" height="16px" viewBox="0 0 16 16" version="1.1" xmlns="http://www.w3.org/2000/svg" xmlns:xlink="http://www.w3.org/1999/xlink">
    <!-- Generator: Sketch 49 (51002) - http://www.bohemiancoding.com/sketch -->
    <title>icon_店铺 copy</title>
    <desc>Created with Sketch.</desc>
    <defs></defs>
    <g id="icon_店铺-copy" stroke="none" stroke-width="1" fill="none" fill-rule="evenodd">
        <g id="Group" transform="translate(1.500000, 1.500000)" fill="#999999" fill-rule="nonzero">
            <path d="M0.544756821,5.08814935 C0.514787891,5.15174177 0.5,5.21595371 0.5,5.28125 C0.5,5.64184704 0.977537282,6 1.625,6 C2.27246272,6 2.75,5.64184704 2.75,5.28125 C2.75,5.21595371 2.73521211,5.15174177 2.70524318,5.08814935 C2.54895026,4.75650435 2.79090669,4.375 3.15753441,4.375 L3.34246559,4.375 C3.70909331,4.375 3.95104974,4.75650435 3.79475682,5.08814935 C3.76478789,5.15174177 3.75,5.21595371 3.75,5.28125 C3.75,5.64184704 4.22753728,6 4.875,6 C5.52246272,6 6,5.64184704 6,5.28125 C6,5.21595371 5.98521211,5.15174177 5.95524318,5.08814935 C5.79895026,4.75650435 6.04090669,4.375 6.40753441,4.375 L6.59246559,4.375 C6.95909331,4.375 7.20104974,4.75650435 7.04475682,5.08814935 C7.01478789,5.15174177 7,5.21595371 7,5.28125 C7,5.64184704 7.47753728,6 8.125,6 C8.77246272,6 9.25,5.64184704 9.25,5.28125 C9.25,5.21595371 9.23521211,5.15174177 9.20524318,5.08814935 C9.04895026,4.75650435 9.29090669,4.375 9.65753441,4.375 L9.84246559,4.375 C10.2090933,4.375 10.4510497,4.75650435 10.2947568,5.08814935 C10.2647879,5.15174177 10.25,5.21595371 10.25,5.28125 C10.25,5.64184704 10.7275373,6 11.375,6 C12.0224627,6 12.5,5.64184704 12.5,5.28125 C12.5,5.21595371 12.4852121,5.15174177 12.4552432,5.08814935 C12.4081486,4.9882172 12.3972132,4.88375805 12.4149522,4.78657346 L10.6619776,0.798789409 C10.5821648,0.617225956 10.4025817,0.5 10.2042502,0.5 L2.82156965,0.5 C2.62415307,0.5 2.44521855,0.616159988 2.36486322,0.796482837 L0.585551671,4.78937963 C0.602573129,4.88576701 0.59139846,4.98917835 0.544756821,5.08814935 Z M8.125,7 C7.48298683,7 6.89416845,6.77048805 6.5,6.39566146 C6.10583155,6.77048805 5.51701317,7 4.875,7 C4.23298683,7 3.64416845,6.77048805 3.25,6.39566146 C2.85583155,6.77048805 2.26701317,7 1.625,7 C0.477537282,7 -0.5,6.26684704 -0.5,5.28125 C-0.5,5.19503455 -0.492231715,5.10968459 -0.476989166,5.02578315 C-0.512344691,4.9151406 -0.509778156,4.79057942 -0.456706431,4.67148284 L1.45145036,0.389448511 C1.69251634,-0.151520036 2.22931989,-0.5 2.82156965,-0.5 L10.2042502,-0.5 C10.7992446,-0.5 11.3379939,-0.148322131 11.5774322,0.396368227 L13.4577273,4.67378941 C13.5098014,4.79225101 13.5121005,4.91589708 13.4769896,5.0257853 C13.4922318,5.10968604 13.5,5.19503529 13.5,5.28125 C13.5,6.26684704 12.5224627,7 11.375,7 C10.7329868,7 10.1441684,6.77048805 9.75,6.39566146 C9.35583155,6.77048805 8.76701317,7 8.125,7 Z" id="Combined-Shape"></path>
            <path d="M11.4166667,9.75 C11.4166667,9.47385763 11.6405243,9.25 11.9166667,9.25 C12.192809,9.25 12.4166667,9.47385763 12.4166667,9.75 L12.4166667,12 C12.4166667,12.8284271 11.7450938,13.5 10.9166667,13.5 L2.08333333,13.5 C1.25490621,13.5 0.583333333,12.8284271 0.583333333,12 L0.583333333,9.75 C0.583333333,9.47385763 0.807190958,9.25 1.08333333,9.25 C1.35947571,9.25 1.58333333,9.47385763 1.58333333,9.75 L1.58333333,12 C1.58333333,12.2761424 1.80719096,12.5 2.08333333,12.5 L10.9166667,12.5 C11.192809,12.5 11.4166667,12.2761424 11.4166667,12 L11.4166667,9.75 Z" id="Rectangle"></path>
            <path d="M3.79166667,10.7916667 C3.51552429,10.7916667 3.29166667,10.567809 3.29166667,10.2916667 C3.29166667,10.0155243 3.51552429,9.79166667 3.79166667,9.79166667 L9.20833333,9.79166667 C9.48447571,9.79166667 9.70833333,10.0155243 9.70833333,10.2916667 C9.70833333,10.567809 9.48447571,10.7916667 9.20833333,10.7916667 L3.79166667,10.7916667 Z" id="Line"></path>
        </g>
    </g>
</svg>