<?xml version="1.0" encoding="UTF-8"?>
<svg width="16px" height="16px" viewBox="0 0 16 16" version="1.1" xmlns="http://www.w3.org/2000/svg" xmlns:xlink="http://www.w3.org/1999/xlink">
    <!-- Generator: Sketch 49 (51002) - http://www.bohemiancoding.com/sketch -->
    <title>icon_定位</title>
    <desc>Created with Sketch.</desc>
    <defs></defs>
    <g id="icon_定位" stroke="none" stroke-width="1" fill="none" fill-rule="evenodd">
        <g id="Group-8" transform="translate(3.000000, 2.000000)" fill="#999999" fill-rule="nonzero">
            <path d="M5,13 C3.20446115,13 -0.5,8.53339406 -0.5,5 C-0.5,1.96243388 1.96243388,-0.5 5,-0.5 C8.03756612,-0.5 10.5,1.96243388 10.5,5 C10.5,8.53339406 6.79553885,13 5,13 Z M5,12 C5.29646122,12 6.49268595,11.0864067 7.44754883,9.93509318 C8.72300943,8.39722311 9.5,6.6639903 9.5,5 C9.5,2.51471863 7.48528137,0.5 5,0.5 C2.51471863,0.5 0.5,2.51471863 0.5,5 C0.5,6.6639903 1.27699057,8.39722311 2.55245117,9.93509318 C3.50731405,11.0864067 4.70353878,12 5,12 Z" id="Oval-2"></path>
            <path d="M5,8 C3.34314575,8 2,6.65685425 2,5 C2,3.34314575 3.34314575,2 5,2 C6.65685425,2 8,3.34314575 8,5 C8,6.65685425 6.65685425,8 5,8 Z M5,7 C6.1045695,7 7,6.1045695 7,5 C7,3.8954305 6.1045695,3 5,3 C3.8954305,3 3,3.8954305 3,5 C3,6.1045695 3.8954305,7 5,7 Z" id="Oval-3"></path>
        </g>
    </g>
</svg>