<?xml version="1.0" encoding="UTF-8"?>
<svg width="32px" height="32px" viewBox="0 0 32 32" version="1.1" xmlns="http://www.w3.org/2000/svg" xmlns:xlink="http://www.w3.org/1999/xlink">
    <!-- Generator: Sketch 49 (51002) - http://www.bohemiancoding.com/sketch -->
    <title>icon_待付款</title>
    <desc>Created with Sketch.</desc>
    <defs></defs>
    <g id="icon_待付款" stroke="none" stroke-width="1" fill="none" fill-rule="evenodd">
        <circle id="Oval-2" fill="#EBEBEB" cx="16" cy="16" r="16"></circle>
        <g id="Group-13" transform="translate(8.500000, 10.000000)" fill="#999999">
            <path d="M2,0.5 C1.17157288,0.5 0.5,1.17157288 0.5,2 L0.5,10.8290909 C0.5,11.657518 1.17157288,12.3290909 2,12.3290909 L14.1672727,12.3290909 C14.9956999,12.3290909 15.6672727,11.657518 15.6672727,10.8290909 L15.6672727,2 C15.6672727,1.17157288 14.9956999,0.5 14.1672727,0.5 L2,0.5 Z M2,-0.5 L14.1672727,-0.5 C15.5479846,-0.5 16.6672727,0.619288125 16.6672727,2 L16.6672727,10.8290909 C16.6672727,12.2098028 15.5479846,13.3290909 14.1672727,13.3290909 L2,13.3290909 C0.619288125,13.3290909 -0.5,12.2098028 -0.5,10.8290909 L-0.5,2 C-0.5,0.619288125 0.619288125,-0.5 2,-0.5 Z" id="Rectangle-3" fill-rule="nonzero"></path>
            <path d="M16.1722761,7.74717272 L16.1722761,8.74717272 L10.6689909,8.74717272 C9.38071644,8.74717272 8.33636364,7.70281992 8.33636364,6.41454545 C8.33636364,5.12627099 9.38071644,4.08191819 10.6689909,4.08191819 L16.2015834,4.08191819 L16.2015834,5.08191819 L10.6689909,5.08191819 C9.93300119,5.08191819 9.33636364,5.67855574 9.33636364,6.41454545 C9.33636364,7.15053517 9.93300119,7.74717272 10.6689909,7.74717272 L16.1722761,7.74717272 Z" id="Rectangle-4" fill-rule="nonzero"></path>
            <circle id="Oval" cx="13.8763636" cy="6.41454545" r="1"></circle>
        </g>
    </g>
</svg>