<?xml version="1.0" encoding="UTF-8"?>
<svg width="22px" height="22px" viewBox="0 0 22 22" version="1.1" xmlns="http://www.w3.org/2000/svg" xmlns:xlink="http://www.w3.org/1999/xlink">
    <!-- Generator: Sketch 49 (51002) - http://www.bohemiancoding.com/sketch -->
    <title>icon-消息-22</title>
    <desc>Created with Sketch.</desc>
    <defs></defs>
    <g id="icon-消息-22" stroke="none" stroke-width="1" fill="none" fill-rule="evenodd">
        <g id="Group-19" transform="translate(2.000000, 3.000000)" fill="#333333">
            <path d="M8.19325015,14.0046076 C8.28085933,13.9367951 8.38850961,13.9 8.49929723,13.9 L10.8,13.9 C14.5003078,13.9 17.5,10.9003078 17.5,7.2 C17.5,3.49969218 14.5003078,0.5 10.8,0.5 L7.2,0.5 C3.49969218,0.5 0.5,3.49969218 0.5,7.2 C0.5,9.92906126 2.1466652,12.3536953 4.62270548,13.3864949 C4.92263821,13.511602 5.02539448,13.8851003 4.83166566,14.1460229 C4.72965725,14.2834124 4.62081533,14.4186843 4.50453495,14.5537361 C4.35455283,14.7279302 4.19874,14.8946466 4.01800702,15.0777414 C3.97477558,15.1215378 3.88852377,15.207428 3.8077355,15.2877621 C4.88865364,15.4541381 6.94346178,14.9719859 8.19325015,14.0046076 Z M2.74276131,15.945804 C2.39953459,15.7154935 2.43798576,15.3799615 2.6182188,15.1078516 C2.68403429,15.0084855 2.77175242,14.9104084 2.91812984,14.7623802 C2.96257888,14.7174299 3.22441972,14.4582153 3.30632497,14.3752397 C3.42713836,14.2528475 3.53468758,14.1396432 3.63574553,14.0273154 C1.12858317,12.717739 -0.5,10.1093369 -0.5,7.2 C-0.5,2.94740743 2.94740743,-0.5 7.2,-0.5 L10.8,-0.5 C15.0525926,-0.5 18.5,2.94740743 18.5,7.2 C18.5,11.4525926 15.0525926,14.9 10.8,14.9 L8.66560362,14.9 C6.84909386,16.2155614 3.88291783,16.7108669 2.74276131,15.945804 Z" id="Combined-Shape" fill-rule="nonzero"></path>
            <circle id="Oval-5" cx="3.6" cy="7.2" r="1"></circle>
            <circle id="Oval-5-Copy" cx="9" cy="7.2" r="1"></circle>
            <circle id="Oval-5-Copy-2" cx="14.4" cy="7.2" r="1"></circle>
        </g>
    </g>
</svg>