<?xml version="1.0" encoding="UTF-8"?>
<svg width="22px" height="22px" viewBox="0 0 22 22" version="1.1" xmlns="http://www.w3.org/2000/svg" xmlns:xlink="http://www.w3.org/1999/xlink">
    <!-- Generator: Sketch 49 (51002) - http://www.bohemiancoding.com/sketch -->
    <title>icon-返回 copy 2</title>
    <desc>Created with Sketch.</desc>
    <defs></defs>
    <g id="icon-返回-copy-2" stroke="none" stroke-width="1" fill="none" fill-rule="evenodd">
        <g id="相机" transform="translate(1.000000, 2.500000)" fill="#333333" fill-rule="nonzero">
            <path d="M5.28982428,3.15311005 L1.99079514,3.15311005 C1.44927079,3.15311005 1,3.60470384 1,4.15899166 L1,14.3577548 C1,14.9202483 1.44144146,15.3636364 1.99079514,15.3636364 L18.0092049,15.3636364 C18.5507292,15.3636364 19,14.9120426 19,14.3577548 L19,4.15899166 C19,3.59649813 18.5585585,3.15311005 18.0092049,3.15311005 L14.7142314,3.15311005 C14.0249149,3.15311005 13.5478224,2.47469763 13.7670988,1.83208686 C13.7520968,1.88675909 13.7505916,1.89717172 13.7411925,1.87855329 L13.4692305,1.3398343 C13.3927514,1.18833984 13.0886368,1 12.9218642,1 L7.07813584,1 C6.90836052,1 6.60898349,1.18490327 6.53076952,1.3398343 L6.25880752,1.87855329 C6.45783035,2.4716629 5.98088181,3.15311005 5.28982428,3.15311005 Z M6.23843229,1.84116909 C6.23359521,1.82413758 6.22677596,1.80257582 6.21646147,1.77715325 C6.22342093,1.79430653 6.22986953,1.81150128 6.2358166,1.82872366 L6.23843229,1.84116909 Z M4.47341647,0.977232689 L4.74537847,0.438513703 C5.16316746,-0.389068304 6.15232744,-1 7.07813584,-1 L12.9218642,-1 C13.845616,-1 14.8389875,-0.384799594 15.2546215,0.438513703 L15.5265835,0.977232689 C15.5559448,1.03539339 15.5826838,1.09406601 15.6067207,1.15311005 L18.0092049,1.15311005 C19.6651028,1.15311005 21,2.49389377 21,4.15899166 L21,14.3577548 C21,16.0143097 19.6576143,17.3636364 18.0092049,17.3636364 L1.99079514,17.3636364 C0.334897236,17.3636364 -1,16.0228526 -1,14.3577548 L-1,4.15899166 C-1,2.50243672 0.34238574,1.15311005 1.99079514,1.15311005 L4.39341584,1.15311005 C4.41737754,1.09403885 4.44406998,1.03536402 4.47341647,0.977232689 Z" id="Combined-Shape"></path>
            <path d="M10,14.3492823 C7.28874199,14.3492823 5.08695652,12.1685665 5.08695652,9.47368421 C5.08695652,6.77880188 7.28874199,4.59808612 10,4.59808612 C12.711258,4.59808612 14.9130435,6.77880188 14.9130435,9.47368421 C14.9130435,12.1685665 12.711258,14.3492823 10,14.3492823 Z M10,12.3492823 C11.6109705,12.3492823 12.9130435,11.0596693 12.9130435,9.47368421 C12.9130435,7.88769911 11.6109705,6.59808612 10,6.59808612 C8.38902953,6.59808612 7.08695652,7.88769911 7.08695652,9.47368421 C7.08695652,11.0596693 8.38902953,12.3492823 10,12.3492823 Z" id="Oval-62"></path>
        </g>
    </g>
</svg>