<?xml version="1.0" encoding="UTF-8"?>
<svg width="30px" height="30px" viewBox="0 0 30 30" version="1.1" xmlns="http://www.w3.org/2000/svg" xmlns:xlink="http://www.w3.org/1999/xlink">
    <!-- Generator: Sketch 49 (51002) - http://www.bohemiancoding.com/sketch -->
    <title>icon-拿货-选中</title>
    <desc>Created with Sketch.</desc>
    <defs></defs>
    <g id="icon-拿货-选中" stroke="none" stroke-width="1" fill="none" fill-rule="evenodd">
        <g id="Group" transform="translate(5.000000, 2.000000)" fill="#333333" fill-rule="nonzero">
            <path d="M14.395263,11.9256321 C14.3113816,12.2487596 13.9404513,12.400498 13.6541502,12.2288031 C12.5090911,11.5421102 11.2686138,11.1792711 10,11.1792711 C8.75470292,11.1792711 7.5364853,11.5288596 6.40865092,12.1915232 C6.12860617,12.3560646 5.76846424,12.2140921 5.67603231,11.9027157 L5.05524798,9.8114727 L5.05319389,9.87396339 C5.0413336,10.2347834 4.6626909,10.4644977 4.33719436,10.3083447 L0.783730576,8.6036142 C0.556207197,8.49446266 0.445680976,8.23287756 0.526006438,7.99365221 L2.33732317,2.59918749 C2.37970129,2.47297693 2.47066458,2.36887922 2.59005453,2.3099636 L6.15325774,0.55162177 C6.22207323,0.517663238 6.29778173,0.5 6.37451994,0.5 L6.77103083,0.5 C7.00962538,0.5 7.21497719,0.668580348 7.26145323,0.902604574 C7.52164121,2.21274839 8.69550684,3.17539486 10.0731675,3.17539486 C11.4508282,3.17539486 12.6246938,2.21274839 12.8848818,0.902604574 C12.9313578,0.668580348 13.1367097,0.5 13.3753042,0.5 L13.7255169,0.5 L13.9401378,0.548405164 L17.480307,2.23087367 C17.6055218,2.29038208 17.7004082,2.39920761 17.7423061,2.53136111 L19.4766199,8.00169916 C19.5520119,8.2394989 19.4405859,8.49648766 19.215475,8.60399448 L15.645901,10.308725 C15.3201806,10.4642801 14.9419888,10.2339946 14.9306718,9.87321334 L14.395263,11.9256321 Z" id="Combined-Shape"></path>
            <path d="M1.5,22.8077633 C1.5,17.6958775 5.40909118,13 10,13 C14.5909088,13 18.5,17.6958775 18.5,22.8077633 C18.5,22.9105255 18.4983774,23.0130941 18.4951386,23.1154409 C18.4891188,23.3056719 18.37562,23.4759883 18.2023665,23.5547749 C15.867908,24.6163644 13.0079023,25.2 10,25.2 C6.9920977,25.2 4.13209198,24.6163644 1.79763349,23.5547749 C1.62438004,23.4759883 1.51088124,23.3056719 1.50486139,23.1154409 C1.50162264,23.0130941 1.5,22.9105255 1.5,22.8077633 Z" id="Combined-Shape"></path>
        </g>
    </g>
</svg>