<?xml version="1.0" encoding="UTF-8"?>
<svg width="16px" height="16px" viewBox="0 0 16 16" version="1.1" xmlns="http://www.w3.org/2000/svg" xmlns:xlink="http://www.w3.org/1999/xlink">
    <!-- Generator: Sketch 49 (51002) - http://www.bohemiancoding.com/sketch -->
    <title>icon-筛选@3x</title>
    <desc>Created with Sketch.</desc>
    <defs></defs>
    <g id="icon-筛选" stroke="none" stroke-width="1" fill="none" fill-rule="evenodd">
        <path d="M3.00002724,2.5 C2.88374011,2.5 2.77108945,2.54053272 2.6814607,2.6146231 C2.46862291,2.79056255 2.4387109,3.10572876 2.61465035,3.31856655 L6.15777018,7.60475586 C6.38004132,7.87364211 6.50163948,8.21159411 6.50163948,8.56045551 L6.50163948,12.3862515 C6.50163948,12.3723632 6.61473774,12.5183109 6.83578064,12.690542 C7.11502855,12.908125 7.49680254,13.1249135 7.87656719,13.2800446 C8.25823196,13.435952 8.59988952,13.5135021 8.81011425,13.4981594 C8.90547113,13.4912 8.87333634,13.5201474 8.87333634,13.4833944 L8.87333634,8.55804334 C8.87333634,8.21138388 8.99340688,7.87542523 9.21313094,7.60729445 L12.72895,3.3169163 C12.8021914,3.22753937 12.8422149,3.11555315 12.8422149,3 C12.8422149,2.72385763 12.6183573,2.5 12.3422149,2.5 L3.00002724,2.5 Z M3.00002724,1.5 L12.3422149,1.5 C13.170642,1.5 13.8422149,2.17157288 13.8422149,3 C13.8422149,3.34665946 13.7221444,3.68261811 13.5024203,3.95074889 L9.98660121,8.24112704 C9.91335985,8.33050397 9.87333634,8.44249018 9.87333634,8.55804334 L9.87333634,13.4833944 C9.87333634,14.0865886 9.46668944,14.4529006 8.88290315,14.4955068 C8.49146807,14.5240747 8.01012745,14.414819 7.49840862,14.2057855 C6.41305,13.7624242 5.50163948,13.0522759 5.50163948,12.3862515 L5.50163948,8.56045551 C5.50163948,8.44416837 5.46110676,8.33151771 5.38701638,8.24188896 L1.84389655,3.95569964 C1.31607821,3.31718629 1.40581425,2.37168764 2.0443276,1.8438693 C2.31321385,1.62159816 2.65116585,1.5 3.00002724,1.5 Z" id="Rectangle-6" fill="#333333" fill-rule="nonzero"></path>
    </g>
</svg>