<?xml version="1.0" encoding="UTF-8"?>
<svg width="22px" height="22px" viewBox="0 0 22 22" version="1.1" xmlns="http://www.w3.org/2000/svg" xmlns:xlink="http://www.w3.org/1999/xlink">
    <!-- Generator: Sketch 49 (51002) - http://www.bohemiancoding.com/sketch -->
    <title>icon_地址管理</title>
    <desc>Created with Sketch.</desc>
    <defs></defs>
    <g id="icon_地址管理" stroke="none" stroke-width="1" fill="none" fill-rule="evenodd">
        <g id="Group-10" transform="translate(3.000000, 1.000000)" fill="#333333" fill-rule="nonzero">
            <path d="M1.12475729,13.6442401 C1.35870399,13.497531 1.66728646,13.5682511 1.81399554,13.8021978 C1.96070462,14.0361445 1.88998456,14.3447269 1.65603786,14.491436 C0.886676835,14.9739059 0.5,15.5015643 0.5,16 C0.5,17.5015693 3.82967158,18.9285714 8,18.9285714 C12.1703284,18.9285714 15.5,17.5015693 15.5,16 C15.5,15.5131665 15.1315075,14.9985633 14.3955851,14.5242537 C14.1634747,14.3746563 14.0965849,14.0652209 14.2461823,13.8331106 C14.3957798,13.6010003 14.7052151,13.5341104 14.9373255,13.6837079 C15.9314169,14.32441 16.5,15.1184416 16.5,16 C16.5,18.2855261 12.6662276,19.9285714 8,19.9285714 C3.33377242,19.9285714 -0.5,18.2855261 -0.5,16 C-0.5,15.0999155 0.0922528912,14.2917285 1.12475729,13.6442401 Z" id="Oval-4"></path>
            <g id="Group-2" transform="translate(1.142857, 0.000000)">
                <path d="M6.85714286,16.5 C5.97099576,16.5 4.10057101,15.4721557 2.65159748,14.0645054 C0.686151642,12.155112 -0.5,9.7085355 -0.5,6.85714286 C-0.5,2.79390506 2.79390506,-0.5 6.85714286,-0.5 C10.9203807,-0.5 14.2142857,2.79390506 14.2142857,6.85714286 C14.2142857,9.7085355 13.0281341,12.155112 11.0626882,14.0645054 C9.61371471,15.4721557 7.74328996,16.5 6.85714286,16.5 Z M6.85714286,15.5 C7.43145515,15.5 9.08562097,14.5909953 10.3658832,13.3472448 C12.1489765,11.6150035 13.2142857,9.41767857 13.2142857,6.85714286 C13.2142857,3.3461898 10.3680959,0.5 6.85714286,0.5 C3.3461898,0.5 0.5,3.3461898 0.5,6.85714286 C0.5,9.41767857 1.56530923,11.6150035 3.34840252,13.3472448 C4.62866475,14.5909953 6.28283057,15.5 6.85714286,15.5 Z" id="Oval"></path>
                <path d="M6.85714286,9.64285714 C5.31863534,9.64285714 4.07142857,8.39565037 4.07142857,6.85714286 C4.07142857,5.31863534 5.31863534,4.07142857 6.85714286,4.07142857 C8.39565037,4.07142857 9.64285714,5.31863534 9.64285714,6.85714286 C9.64285714,8.39565037 8.39565037,9.64285714 6.85714286,9.64285714 Z M6.85714286,8.64285714 C7.84336562,8.64285714 8.64285714,7.84336562 8.64285714,6.85714286 C8.64285714,5.87092009 7.84336562,5.07142857 6.85714286,5.07142857 C5.87092009,5.07142857 5.07142857,5.87092009 5.07142857,6.85714286 C5.07142857,7.84336562 5.87092009,8.64285714 6.85714286,8.64285714 Z" id="Oval-2"></path>
            </g>
        </g>
    </g>
</svg>