<?xml version="1.0" encoding="UTF-8"?>
<svg width="16px" height="16px" viewBox="0 0 16 16" version="1.1" xmlns="http://www.w3.org/2000/svg" xmlns:xlink="http://www.w3.org/1999/xlink">
    <!-- Generator: Sketch 49 (51002) - http://www.bohemiancoding.com/sketch -->
    <title>icon_编辑</title>
    <desc>Created with Sketch.</desc>
    <defs></defs>
    <g id="icon_编辑" stroke="none" stroke-width="1" fill="none" fill-rule="evenodd">
        <g id="Group" transform="translate(0.000000, 1.000000)" fill="#999999" fill-rule="nonzero">
            <path d="M7,1.5 C3.96243388,1.5 1.5,3.96243388 1.5,7 C1.5,10.0375661 3.96243388,12.5 7,12.5 L9,12.5 C12.0375661,12.5 14.5,10.0375661 14.5,7 C14.5,3.96243388 12.0375661,1.5 9,1.5 L7,1.5 Z M7,0.5 L9,0.5 C12.5898509,0.5 15.5,3.41014913 15.5,7 C15.5,10.5898509 12.5898509,13.5 9,13.5 L7,13.5 C3.41014913,13.5 0.5,10.5898509 0.5,7 C0.5,3.41014913 3.41014913,0.5 7,0.5 Z" id="Rectangle"></path>
            <path d="M4,5 C3.72385763,5 3.5,4.77614237 3.5,4.5 C3.5,4.22385763 3.72385763,4 4,4 L8,4 C8.27614237,4 8.5,4.22385763 8.5,4.5 C8.5,4.77614237 8.27614237,5 8,5 L4,5 Z" id="Line"></path>
            <path d="M4,7.5 C3.72385763,7.5 3.5,7.27614237 3.5,7 C3.5,6.72385763 3.72385763,6.5 4,6.5 L7,6.5 C7.27614237,6.5 7.5,6.72385763 7.5,7 C7.5,7.27614237 7.27614237,7.5 7,7.5 L4,7.5 Z" id="Line-Copy"></path>
            <path d="M12.5040372,4.63362116 C12.5040372,4.35747879 12.7278948,4.13362116 13.0040372,4.13362116 C13.2801796,4.13362116 13.5040372,4.35747879 13.5040372,4.63362116 L13.5040372,10.6922606 C13.5040372,10.8239588 13.4520774,10.9503389 13.3594433,11.0439516 L11.9650359,12.4530889 C11.7707949,12.6493818 11.4542018,12.6510365 11.2579195,12.4567848 L9.83405225,11.0476475 C9.73915733,10.9537342 9.68576262,10.8257699 9.68576262,10.6922606 L9.68576262,3.38593168 C9.68576262,3.1097893 9.90962024,2.88593168 10.1857626,2.88593168 C10.461905,2.88593168 10.6857626,3.1097893 10.6857626,3.38593168 L10.6857626,10.4836293 L11.6059339,11.3942815 L12.5040372,10.486691 L12.5040372,4.63362116 Z" id="Rectangle-2" transform="translate(11.594900, 7.743665) rotate(45.000000) translate(-11.594900, -7.743665) "></path>
        </g>
    </g>
</svg>