<?xml version="1.0" encoding="UTF-8"?>
<svg width="16px" height="16px" viewBox="0 0 16 16" version="1.1" xmlns="http://www.w3.org/2000/svg" xmlns:xlink="http://www.w3.org/1999/xlink">
    <!-- Generator: Sketch 49 (51002) - http://www.bohemiancoding.com/sketch -->
    <title>icon-排序 copy@3x</title>
    <desc>Created with Sketch.</desc>
    <defs></defs>
    <g id="icon-排序-copy" stroke="none" stroke-width="1" fill="none" fill-rule="evenodd">
        <g id="Group" transform="translate(3.000000, 1.000000)" fill="#999999" fill-rule="nonzero">
            <path d="M2.5,2.5 L2.5,8 C2.5,8.27614237 2.27614237,8.5 2,8.5 C1.72385763,8.5 1.5,8.27614237 1.5,8 L1.5,2 C1.5,1.72385763 1.72385763,1.5 2,1.5 L8,1.5 C8.27614237,1.5 8.5,1.72385763 8.5,2 C8.5,2.27614237 8.27614237,2.5 8,2.5 L2.5,2.5 Z" id="Rectangle-7" transform="translate(5.000000, 5.000000) rotate(45.000000) translate(-5.000000, -5.000000) "></path>
            <path d="M2.5,6.5 L2.5,12 C2.5,12.2761424 2.27614237,12.5 2,12.5 C1.72385763,12.5 1.5,12.2761424 1.5,12 L1.5,6 C1.5,5.72385763 1.72385763,5.5 2,5.5 L8,5.5 C8.27614237,5.5 8.5,5.72385763 8.5,6 C8.5,6.27614237 8.27614237,6.5 8,6.5 L2.5,6.5 Z" id="Rectangle-7-Copy" transform="translate(5.000000, 9.000000) scale(1, -1) rotate(45.000000) translate(-5.000000, -9.000000) "></path>
        </g>
    </g>
</svg>