<?xml version="1.0" encoding="UTF-8"?>
<svg width="16px" height="16px" viewBox="0 0 16 16" version="1.1" xmlns="http://www.w3.org/2000/svg" xmlns:xlink="http://www.w3.org/1999/xlink">
    <!-- Generator: Sketch 49 (51002) - http://www.bohemiancoding.com/sketch -->
    <title>icon-消息-未选中 copy 3</title>
    <desc>Created with Sketch.</desc>
    <defs></defs>
    <g id="icon-消息-未选中-copy-3" stroke="none" stroke-width="1" fill="none" fill-rule="evenodd">
        <g id="Group-19" transform="translate(1.000000, 2.000000)" fill="#333333" fill-rule="nonzero">
            <path d="M6.30451743,10.8046076 C6.39212661,10.7367951 6.49977689,10.7 6.61056451,10.7 L8.4,10.7 C11.2166522,10.7 13.5,8.41665222 13.5,5.6 C13.5,2.78334778 11.2166522,0.5 8.4,0.5 L5.6,0.5 C2.78334778,0.5 0.5,2.78334778 0.5,5.6 C0.5,7.67737325 1.75343704,9.52299806 3.63821202,10.3091706 C3.93814475,10.4342777 4.04090103,10.807776 3.8471722,11.0686986 C3.76617243,11.1777927 3.67985106,11.2850754 3.58772811,11.39207 C3.46947082,11.5294179 3.34687785,11.6606107 3.20501955,11.8043499 C4.045679,11.8399909 5.43578868,11.4770329 6.30451743,10.8046076 Z M2.07134792,12.4945564 C1.73696579,12.2701807 1.77421105,11.9451718 1.94375839,11.6891948 C2.00022487,11.6039435 2.07180003,11.5239157 2.19064983,11.4037256 C2.22578785,11.3681913 2.42939524,11.1666261 2.49251031,11.1026862 C2.54805564,11.046415 2.59990035,10.9927258 2.64916099,10.9402524 C0.735270702,9.88216698 -0.5,7.8552052 -0.5,5.6 C-0.5,2.23106303 2.23106303,-0.5 5.6,-0.5 L8.4,-0.5 C11.768937,-0.5 14.5,2.23106303 14.5,5.6 C14.5,8.96893697 11.768937,11.7 8.4,11.7 L6.77568254,11.7 C5.32650113,12.7320771 2.99648252,13.1153362 2.07134792,12.4945564 Z" id="Combined-Shape"></path>
            <path d="M5,4.5 C4.72385763,4.5 4.5,4.27614237 4.5,4 C4.5,3.72385763 4.72385763,3.5 5,3.5 L9,3.5 C9.27614237,3.5 9.5,3.72385763 9.5,4 C9.5,4.27614237 9.27614237,4.5 9,4.5 L5,4.5 Z" id="Line"></path>
            <path d="M5,7.5 C4.72385763,7.5 4.5,7.27614237 4.5,7 C4.5,6.72385763 4.72385763,6.5 5,6.5 L9,6.5 C9.27614237,6.5 9.5,6.72385763 9.5,7 C9.5,7.27614237 9.27614237,7.5 9,7.5 L5,7.5 Z" id="Line-Copy"></path>
        </g>
    </g>
</svg>