<?xml version="1.0" encoding="UTF-8"?>
<svg width="30px" height="30px" viewBox="0 0 30 30" version="1.1" xmlns="http://www.w3.org/2000/svg" xmlns:xlink="http://www.w3.org/1999/xlink">
    <!-- Generator: Sketch 49 (51002) - http://www.bohemiancoding.com/sketch -->
    <title>icon-拿货-选中 copy</title>
    <desc>Created with Sketch.</desc>
    <defs></defs>
    <g id="icon-拿货-选中-copy" stroke="none" stroke-width="1" fill="none" fill-rule="evenodd">
        <g id="Group" transform="translate(6.000000, 3.000000)" fill="#333333" fill-rule="nonzero">
            <path d="M9,9.17927111 C10.2410451,9.17927111 11.4544569,9.48080786 12.5889307,10.0519063 L13.8370549,5.24388887 C13.9822214,4.68467921 14.8026547,4.7763842 14.8207684,5.35384471 L14.9061644,8.07624464 L17.3918789,6.88913564 L15.8547538,2.04076609 L12.7423904,0.5616127 C12.22747,2.09746157 10.7622467,3.17539486 9.07316752,3.17539486 C7.37824771,3.17539486 5.90873448,2.08999389 5.39863711,0.545663831 L2.21910266,2.11467578 L0.614632853,6.89310886 L3.07890571,8.07531345 L3.15711637,5.69594566 C3.17575355,5.12895506 3.97473431,5.02624296 4.13617325,5.57008407 L5.45943111,10.0277573 C6.58022241,9.47221262 7.77675049,9.17927111 9,9.17927111 Z M13.395263,10.9256321 C13.3113816,11.2487596 12.9404513,11.400498 12.6541502,11.2288031 C11.5090911,10.5421102 10.2686138,10.1792711 9,10.1792711 C7.75470292,10.1792711 6.5364853,10.5288596 5.40865092,11.1915232 C5.12860617,11.3560646 4.76846424,11.2140921 4.67603231,10.9027157 L4.05524798,8.8114727 L4.05319389,8.87396339 C4.0413336,9.2347834 3.6626909,9.4644977 3.33719436,9.30834474 L-0.216269424,7.6036142 C-0.443792803,7.49446266 -0.554319024,7.23287756 -0.473993562,6.99365221 L1.33732317,1.59918749 C1.37970129,1.47297693 1.47066458,1.36887922 1.59005453,1.3099636 L5.15325774,-0.44837823 C5.22207323,-0.482336762 5.29778173,-0.5 5.37451994,-0.5 L5.77103083,-0.5 C6.00962538,-0.5 6.21497719,-0.331419652 6.26145323,-0.0973954262 C6.52164121,1.21274839 7.69550684,2.17539486 9.07316752,2.17539486 C10.4508282,2.17539486 11.6246938,1.21274839 11.8848818,-0.0973954262 C11.9313578,-0.331419652 12.1367097,-0.5 12.3753042,-0.5 L12.7255169,-0.5 L12.9401378,-0.451594836 L16.480307,1.23087367 C16.6055218,1.29038208 16.7004082,1.39920761 16.7423061,1.53136111 L18.4766199,7.00169916 C18.5520119,7.2394989 18.4405859,7.49648766 18.215475,7.60399448 L14.645901,9.30872501 C14.3201806,9.46428013 13.9419888,9.23399458 13.9306718,8.87321334 L13.395263,10.9256321 Z" id="Combined-Shape"></path>
            <path d="M9,23.2 C11.7448547,23.2 14.3523639,22.6921241 16.4999286,21.7718421 C16.4817242,17.1898419 12.983503,13 9,13 C5.01649701,13 1.51827579,17.1898419 1.50007137,21.7718421 C3.64763614,22.6921241 6.25514529,23.2 9,23.2 Z M0.5,21.8077633 C0.5,16.6958775 4.40909118,12 9,12 C13.5909088,12 17.5,16.6958775 17.5,21.8077633 C17.5,21.9105255 17.4983774,22.0130941 17.4951386,22.1154409 C17.4891188,22.3056719 17.37562,22.4759883 17.2023665,22.5547749 C14.867908,23.6163644 12.0079023,24.2 9,24.2 C5.9920977,24.2 3.13209198,23.6163644 0.797633485,22.5547749 C0.624380038,22.4759883 0.510881239,22.3056719 0.504861392,22.1154409 C0.501622637,22.0130941 0.5,21.9105255 0.5,21.8077633 Z" id="Combined-Shape"></path>
        </g>
    </g>
</svg>