<?xml version="1.0" encoding="UTF-8"?>
<svg width="32px" height="32px" viewBox="0 0 32 32" version="1.1" xmlns="http://www.w3.org/2000/svg" xmlns:xlink="http://www.w3.org/1999/xlink">
    <!-- Generator: Sketch 49 (51002) - http://www.bohemiancoding.com/sketch -->
    <title>icon_待发货</title>
    <desc>Created with Sketch.</desc>
    <defs></defs>
    <g id="icon_待发货" stroke="none" stroke-width="1" fill="none" fill-rule="evenodd">
        <circle id="Oval-2" fill="#EBEBEB" cx="16" cy="16" r="16"></circle>
        <g id="Group-13" transform="translate(7.000000, 9.000000)" fill="#999999" fill-rule="nonzero">
            <path d="M5,5.5 C5,5.22385763 5.22385763,5 5.5,5 C5.77614237,5 6,5.22385763 6,5.5 L6,7.5 C6,7.77614237 5.77614237,8 5.5,8 L3.35702884,8 C3.08088646,8 2.85702884,7.77614237 2.85702884,7.5 C2.85702884,7.22385763 3.08088646,7 3.35702884,7 L5,7 L5,5.5 Z" id="Line-2"></path>
            <path d="M1.1356233,6.67882544 L1.1356233,10.851226 C1.1356233,11.1273684 0.911765672,11.351226 0.635623297,11.351226 C0.359480922,11.351226 0.135623297,11.1273684 0.135623297,10.851226 L0.135623297,6.4280273 C0.135623297,6.27019947 0.210141684,6.12163699 0.336645243,6.02726288 L4.6101931,2.83911306 L4.6101931,0.418861049 C4.6101931,0.142718674 4.83405073,-0.0811389514 5.1101931,-0.0811389514 L16.2859946,-0.0811389514 C16.562137,-0.0811389514 16.7859946,0.142718674 16.7859946,0.418861049 L16.7859946,10.851226 C16.7859946,11.1273684 16.562137,11.351226 16.2859946,11.351226 C16.0098523,11.351226 15.7859946,11.1273684 15.7859946,10.851226 L15.7859946,0.918861049 L5.6101931,0.918861049 L5.6101931,3.0899112 C5.6101931,3.24773903 5.53567472,3.39630151 5.40917116,3.49067562 L1.1356233,6.67882544 Z" id="Path-2"></path>
            <path d="M4,14.5 C2.61928813,14.5 1.5,13.3807119 1.5,12 C1.5,10.6192881 2.61928813,9.5 4,9.5 C5.38071187,9.5 6.5,10.6192881 6.5,12 C6.5,13.3807119 5.38071187,14.5 4,14.5 Z M4,13.5 C4.82842712,13.5 5.5,12.8284271 5.5,12 C5.5,11.1715729 4.82842712,10.5 4,10.5 C3.17157288,10.5 2.5,11.1715729 2.5,12 C2.5,12.8284271 3.17157288,13.5 4,13.5 Z" id="Oval"></path>
            <path d="M13,14.5 C11.6192881,14.5 10.5,13.3807119 10.5,12 C10.5,10.6192881 11.6192881,9.5 13,9.5 C14.3807119,9.5 15.5,10.6192881 15.5,12 C15.5,13.3807119 14.3807119,14.5 13,14.5 Z M13,13.5 C13.8284271,13.5 14.5,12.8284271 14.5,12 C14.5,11.1715729 13.8284271,10.5 13,10.5 C12.1715729,10.5 11.5,11.1715729 11.5,12 C11.5,12.8284271 12.1715729,13.5 13,13.5 Z" id="Oval-Copy"></path>
            <polygon id="Line" points="6 12.5 6 11.5 11 11.5 11 12.5"></polygon>
        </g>
    </g>
</svg>