<?xml version="1.0" encoding="UTF-8"?>
<svg width="40px" height="40px" viewBox="0 0 40 40" version="1.1" xmlns="http://www.w3.org/2000/svg" xmlns:xlink="http://www.w3.org/1999/xlink">
    <!-- Generator: Sketch 49 (51002) - http://www.bohemiancoding.com/sketch -->
    <title>icon_qq</title>
    <desc>Created with Sketch.</desc>
    <defs></defs>
    <g id="icon_qq" stroke="none" stroke-width="1" fill="none" fill-rule="evenodd">
        <g>
            <circle id="Oval-5" fill="#4DC1F9" cx="20" cy="20" r="20"></circle>
            <path d="M28.0397168,19.2500742 C29.2746193,20.6368384 29.9820738,22.2380834 29.9981258,23.7763171 C30.0067398,24.6017879 29.9981258,25.0675737 29.6914199,25.8152829 C29.5828113,26.0800565 29.2100264,26.0783814 29.0187611,25.9167566 C28.4190148,25.4099533 28.0610433,24.8978244 27.7336176,24.2785404 C27.6217202,25.418722 27.0002325,26.4617315 26.0260879,27.2985873 C27.2239413,27.5698113 28.0541029,28.1609936 28.0921522,28.887018 C28.0951346,28.9439262 28.0931904,29.0005193 28.0865135,29.0566871 C28.0941697,29.1127299 28.0971013,29.1692804 28.0951125,29.2262321 C28.0581331,30.2851825 26.3338388,31.0871158 24.2259711,31.036094 C22.4528608,31.1099938 20.9408906,30.5750022 20.4734954,29.7728246 C20.2809731,29.7787638 20.085815,29.7818021 19.8884492,29.7818021 C19.8066874,29.7818021 19.7253045,29.7812807 19.6443309,29.7802476 C19.0702289,30.4924217 17.6928779,31.0098947 16.076512,31.0381027 C15.3224175,31.0512628 14.6165973,30.9561807 14.0173556,30.7807505 C12.876801,30.5564761 12.0761678,30.0233826 12.0029591,29.3268721 C11.9729758,29.04161 12.0680427,28.7577923 12.2641972,28.4907242 C12.3941425,27.9129608 13.0345133,27.4830749 13.9228688,27.2979223 C13.0160465,26.5186498 12.4149751,25.5606897 12.246321,24.512005 C11.924707,25.0704709 11.5687006,25.5398717 10.9767128,26.0087171 C10.8300019,26.1249099 10.4641476,26.1298308 10.3475093,25.8885476 C9.99284428,25.1548716 9.96888117,24.7976434 10.0206852,23.9737547 C10.1208327,22.3810145 10.9152791,20.5897049 12.3614951,19.3258331 C12.256288,19.0945538 12.1978876,18.8388817 12.1978876,18.5700242 C12.1978876,18.1588821 12.3344576,17.7785743 12.5661373,17.4691794 C12.5512457,17.384329 12.5435258,17.297456 12.5435258,17.209032 C12.5435258,16.7060118 12.7933539,16.2531855 13.1920984,15.9373591 C13.2372643,12.0983172 16.3921158,9 20.2772979,9 C24.1906168,9 27.3629885,12.1433562 27.3629885,16.0208827 C27.3629885,16.0458254 27.3628573,16.0707377 27.3625954,16.095619 C27.9741905,16.5552036 28.345247,17.4122771 28.2626606,18.3562442 C28.2346311,18.6766225 28.1568788,18.9780696 28.0397168,19.2500742 Z" id="QQ" fill="#FFFFFF"></path>
        </g>
    </g>
</svg>