<?xml version="1.0" encoding="UTF-8"?>
<svg width="22px" height="22px" viewBox="0 0 22 22" version="1.1" xmlns="http://www.w3.org/2000/svg" xmlns:xlink="http://www.w3.org/1999/xlink">
    <!-- Generator: Sketch 49 (51002) - http://www.bohemiancoding.com/sketch -->
    <title>icon_plus</title>
    <desc>Created with Sketch.</desc>
    <defs></defs>
    <g id="icon_plus" stroke="none" stroke-width="1" fill="none" fill-rule="evenodd">
        <g id="Group-3-Copy" fill="#333333" fill-rule="nonzero">
            <path d="M1.5,1 C1.22385763,1 1,1.22385763 1,1.5 L1,20.5 C1,20.7761424 1.22385763,21 1.5,21 L20.5,21 C20.7761424,21 21,20.7761424 21,20.5 L21,1.5 C21,1.22385763 20.7761424,1 20.5,1 L1.5,1 Z M1.5,0 L20.5,0 C21.3284271,-1.66533454e-16 22,0.671572875 22,1.5 L22,20.5 C22,21.3284271 21.3284271,22 20.5,22 L1.5,22 C0.671572875,22 1.66533454e-16,21.3284271 0,20.5 L0,1.5 C-8.32667268e-17,0.671572875 0.671572875,1.66533454e-16 1.5,0 Z" id="Rectangle-5"></path>
            <path d="M6,11.5 C5.72385763,11.5 5.5,11.2761424 5.5,11 C5.5,10.7238576 5.72385763,10.5 6,10.5 L16,10.5 C16.2761424,10.5 16.5,10.7238576 16.5,11 C16.5,11.2761424 16.2761424,11.5 16,11.5 L6,11.5 Z" id="Line"></path>
            <path d="M10.5,6 C10.5,5.72385763 10.7238576,5.5 11,5.5 C11.2761424,5.5 11.5,5.72385763 11.5,6 L11.5,16 C11.5,16.2761424 11.2761424,16.5 11,16.5 C10.7238576,16.5 10.5,16.2761424 10.5,16 L10.5,6 Z" id="Line"></path>
        </g>
    </g>
</svg>