<?xml version="1.0" encoding="UTF-8"?>
<svg width="22px" height="22px" viewBox="0 0 22 22" version="1.1" xmlns="http://www.w3.org/2000/svg" xmlns:xlink="http://www.w3.org/1999/xlink">
    <!-- Generator: Sketch 49 (51002) - http://www.bohemiancoding.com/sketch -->
    <title>icon-搜索</title>
    <desc>Created with Sketch.</desc>
    <defs></defs>
    <g id="icon-搜索" stroke="none" stroke-width="1" fill="none" fill-rule="evenodd">
        <g id="Group-18" transform="translate(1.000000, 1.000000)" fill="#333333" fill-rule="nonzero">
            <path d="M9,19 C3.4771525,19 -1,14.5228475 -1,9 C-1,3.4771525 3.4771525,-1 9,-1 C14.5228475,-1 19,3.4771525 19,9 C19,14.5228475 14.5228475,19 9,19 Z M9,17 C13.418278,17 17,13.418278 17,9 C17,4.581722 13.418278,1 9,1 C4.581722,1 1,4.581722 1,9 C1,13.418278 4.581722,17 9,17 Z" id="Oval-3"></path>
            <path d="M14.7447405,16.1566955 C14.3543131,15.7660743 14.3544703,15.1329093 14.7450915,14.742482 C15.1357127,14.3520546 15.7688777,14.3522118 16.159305,14.742833 L20.7072823,19.2930688 C21.0977096,19.68369 21.0975525,20.3168549 20.7069312,20.7072823 C20.31631,21.0977096 19.6831451,21.0975525 19.2927177,20.7069312 L14.7447405,16.1566955 Z" id="Line-4"></path>
        </g>
    </g>
</svg>