<?xml version="1.0" encoding="UTF-8"?>
<svg width="22px" height="22px" viewBox="0 0 22 22" version="1.1" xmlns="http://www.w3.org/2000/svg" xmlns:xlink="http://www.w3.org/1999/xlink">
    <!-- Generator: Sketch 49 (51002) - http://www.bohemiancoding.com/sketch -->
    <title>icon_足迹</title>
    <desc>Created with Sketch.</desc>
    <defs></defs>
    <g id="icon_足迹" stroke="none" stroke-width="1" fill="none" fill-rule="evenodd">
        <g id="Group-10" transform="translate(2.000000, 2.500000)">
            <path d="M14.5655125,6.6507097 C14.9349963,8.37644184 15.1842973,8.88604302 16.0168898,9.28745897 C18.1158481,10.299425 18.9708581,11.1594692 18.9708581,13.0449847 C18.9708581,15.3148267 16.823763,17.3565094 14.7331214,16.9540944 C13.136073,16.6466882 12.4056045,15.9163537 11.8504078,14.5393828 C11.8130368,14.4466969 11.7797203,14.3612797 11.7136481,14.1905371 C11.112213,12.6419814 10.5436541,12.3080215 7.98523757,12.7954778 C5.17414369,13.3310768 2.55465976,10.5329663 2.68445815,7.4384549 C2.8122481,4.39182652 5.57245849,2.10405383 8.84522281,2.16623405 C11.9859908,2.22590643 13.9510381,3.78071056 14.5655125,6.6507097 Z M13.5876734,6.86006761 C13.0722297,4.45260667 11.5106728,3.21705619 8.82622694,3.16605361 C6.07088487,3.11370405 3.78734973,5.00638924 3.68357963,7.48036276 C3.57884569,9.97731496 5.67599312,12.2174701 7.79807401,11.813149 C10.8410498,11.2333694 11.873416,11.8397602 12.6458115,13.8284992 C12.7119724,13.9994364 12.7429718,14.078913 12.7778571,14.1654338 C13.2167376,15.2539232 13.6997295,15.7368264 14.9221358,15.9721201 C16.3607834,16.2490367 17.9708581,14.7180092 17.9708581,13.0449847 C17.9708581,11.6541742 17.3703991,11.0501797 15.5826016,10.188233 C14.3789906,9.60793867 14.0180209,8.87007355 13.5876734,6.86006761 Z" id="Combined-Shape" fill="#333333" fill-rule="nonzero" transform="translate(10.825343, 9.585047) rotate(11.000000) translate(-10.825343, -9.585047) "></path>
            <circle id="Oval-3" stroke="#333333" cx="1.25" cy="5.91666667" r="1.25"></circle>
            <path d="M3.33333333,2.90726872 C5.19040081,0.542189656 8.78744104,-0.363780581 11.1369484,0.130565843" id="Line" stroke="#333333" stroke-linecap="round"></path>
        </g>
    </g>
</svg>