<?xml version="1.0" encoding="UTF-8"?>
<svg width="26px" height="26px" viewBox="0 0 26 26" version="1.1" xmlns="http://www.w3.org/2000/svg" xmlns:xlink="http://www.w3.org/1999/xlink">
    <!-- Generator: Sketch 49 (51002) - http://www.bohemiancoding.com/sketch -->
    <title>icon-消息-未选中 copy 5</title>
    <desc>Created with Sketch.</desc>
    <defs></defs>
    <g id="icon-消息-未选中-copy-5" stroke="none" stroke-width="1" fill="none" fill-rule="evenodd">
        <g id="Group-19" transform="translate(1.000000, 2.500000)" fill="#333333">
            <path d="M11.0263492,18.8046076 C11.1139584,18.7367951 11.2216087,18.7 11.3323963,18.7 L14.4,18.7 C19.4257912,18.7 23.5,14.6257912 23.5,9.6 C23.5,4.57420878 19.4257912,0.5 14.4,0.5 L9.6,0.5 C4.57420878,0.5 0.5,4.57420878 0.5,9.6 C0.5,13.3065933 2.73650744,16.5997412 6.09944566,18.0024814 C6.39937839,18.1275885 6.50213467,18.5010868 6.30840584,18.7620094 C6.17488448,18.9418419 6.03226173,19.1190976 5.87974521,19.2962353 C5.68252055,19.5252984 5.47724792,19.7449357 5.23872902,19.9865716 C5.1342331,20.0924331 4.83766204,20.3862574 4.74299203,20.4808431 C6.14970807,20.8676593 9.20613945,20.2135113 11.0263492,18.8046076 Z M3.74988139,21.1226753 C3.3933878,20.8834625 3.43364783,20.5321462 3.62990942,20.2358369 C3.70974844,20.1152986 3.82168101,19.9901474 4.00934986,19.8003621 C4.06776542,19.7412877 4.41695644,19.3955991 4.52704697,19.2840699 C4.74786812,19.060363 4.93619967,18.8590178 5.11479107,18.6520484 C1.71869148,16.9683257 -0.5,13.4891625 -0.5,9.6 C-0.5,4.02192403 4.02192403,-0.5 9.6,-0.5 L14.4,-0.5 C19.978076,-0.5 24.5,4.02192403 24.5,9.6 C24.5,15.178076 19.978076,19.7 14.4,19.7 L11.4997845,19.7 C9.13307407,21.4406505 5.21204619,22.1038109 3.74988139,21.1226753 Z" id="Combined-Shape" fill-rule="nonzero"></path>
            <circle id="Oval-5" cx="4.8" cy="9.6" r="1.2"></circle>
            <circle id="Oval-5-Copy" cx="12" cy="9.6" r="1.2"></circle>
            <circle id="Oval-5-Copy-2" cx="19.2" cy="9.6" r="1.2"></circle>
        </g>
    </g>
</svg>