<?xml version="1.0" encoding="UTF-8"?>
<svg width="16px" height="16px" viewBox="0 0 16 16" version="1.1" xmlns="http://www.w3.org/2000/svg" xmlns:xlink="http://www.w3.org/1999/xlink">
    <!-- Generator: Sketch 49 (51002) - http://www.bohemiancoding.com/sketch -->
    <title>icon_店铺 copy 2</title>
    <desc>Created with Sketch.</desc>
    <defs></defs>
    <g id="icon_店铺-copy-2" stroke="none" stroke-width="1" fill="none" fill-rule="evenodd">
        <g id="Group" transform="translate(2.500000, 1.500000)" fill="#333333" fill-rule="nonzero">
            <path d="M5.5,7.83333333 C3.19881354,7.83333333 1.33333333,5.96785312 1.33333333,3.66666667 C1.33333333,1.36548021 3.19881354,-0.5 5.5,-0.5 C7.80118646,-0.5 9.66666667,1.36548021 9.66666667,3.66666667 C9.66666667,5.96785312 7.80118646,7.83333333 5.5,7.83333333 Z M5.5,6.83333333 C7.24890171,6.83333333 8.66666667,5.41556837 8.66666667,3.66666667 C8.66666667,1.91776496 7.24890171,0.5 5.5,0.5 C3.75109829,0.5 2.33333333,1.91776496 2.33333333,3.66666667 C2.33333333,5.41556837 3.75109829,6.83333333 5.5,6.83333333 Z" id="Oval-10"></path>
            <path d="M11.5,12.8333333 C11.5,13.1094757 11.2761424,13.3333333 11,13.3333333 C10.7238576,13.3333333 10.5,13.1094757 10.5,12.8333333 C10.5,10.0719096 8.26142375,7.83333333 5.5,7.83333333 C2.73857625,7.83333333 0.5,10.0719096 0.5,12.8333333 C0.5,13.1094757 0.276142375,13.3333333 0,13.3333333 C-0.276142375,13.3333333 -0.5,13.1094757 -0.5,12.8333333 C-0.5,9.51962483 2.1862915,6.83333333 5.5,6.83333333 C8.8137085,6.83333333 11.5,9.51962483 11.5,12.8333333 Z" id="Oval-10-Copy"></path>
        </g>
    </g>
</svg>