<?xml version="1.0" encoding="UTF-8"?>
<svg width="16px" height="16px" viewBox="0 0 16 16" version="1.1" xmlns="http://www.w3.org/2000/svg" xmlns:xlink="http://www.w3.org/1999/xlink">
    <!-- Generator: Sketch 49 (51002) - http://www.bohemiancoding.com/sketch -->
    <title>icon_agree</title>
    <desc>Created with Sketch.</desc>
    <defs></defs>
    <g id="icon_agree" stroke="none" stroke-width="1" fill="none" fill-rule="evenodd">
        <path d="M4.5,1 C2.56700338,1 1,2.56700338 1,4.5 L1,11.5 C1,13.4329966 2.56700338,15 4.5,15 L11.5,15 C13.4329966,15 15,13.4329966 15,11.5 L15,4.5 C15,2.56700338 13.4329966,1 11.5,1 L4.5,1 Z M4.5,0 L11.5,0 C13.9852814,-4.37150316e-16 16,2.01471863 16,4.5 L16,11.5 C16,13.9852814 13.9852814,16 11.5,16 L4.5,16 C2.01471863,16 2.49800181e-16,13.9852814 0,11.5 L0,4.5 C-3.12250226e-16,2.01471863 2.01471863,4.99600361e-16 4.5,0 Z" id="Rectangle-26" fill="#CCCCCC" fill-rule="nonzero"></path>
        <path d="M11.8357238,4.68232714 C12.0111696,4.46908232 12.3262657,4.43844021 12.5395105,4.61388608 C12.7527554,4.78933196 12.7833975,5.10442803 12.6079516,5.31767286 L8.12713528,10.763859 C7.95899549,10.9682237 7.66073181,11.0061768 7.44676944,10.8504334 L3.70574807,8.12734029 C3.4824885,7.96482944 3.43324194,7.65210072 3.5957528,7.42884116 C3.75826365,7.20558159 4.07099237,7.15633503 4.29425193,7.31884589 L7.65429484,9.76462439 L11.8357238,4.68232714 Z" id="Path-2" fill="#333333" fill-rule="nonzero"></path>
    </g>
</svg>