<?xml version="1.0" encoding="UTF-8"?>
<svg width="22px" height="22px" viewBox="0 0 22 22" version="1.1" xmlns="http://www.w3.org/2000/svg" xmlns:xlink="http://www.w3.org/1999/xlink">
    <!-- Generator: Sketch 49 (51002) - http://www.bohemiancoding.com/sketch -->
    <title>icon-消息-未选中 copy 6</title>
    <desc>Created with Sketch.</desc>
    <defs></defs>
    <g id="icon-消息-未选中-copy-6" stroke="none" stroke-width="1" fill="none" fill-rule="evenodd">
        <g id="Group-19" transform="translate(1.000000, 2.200000)" fill="#333333" fill-rule="nonzero">
            <path d="M9.13688992,15.6033765 C9.22449909,15.5355641 9.33214938,15.498769 9.442937,15.498769 L11.9990767,15.498769 C16.1408724,15.498769 19.4984612,12.1411802 19.4984612,7.99938448 C19.4984612,3.8575888 16.1408724,0.5 11.9990767,0.5 L7.99938448,0.5 C3.8575888,0.5 0.5,3.8575888 0.5,7.99938448 C0.5,11.054039 2.343128,13.767955 5.11457347,14.9239732 C5.4145062,15.0490804 5.51726248,15.4225787 5.32353365,15.6835012 C5.21102901,15.8350275 5.09093548,15.9842833 4.96258568,16.1333529 C4.79686816,16.3258226 4.62458142,16.5101657 4.42460128,16.7127592 C4.36289309,16.7752738 4.22170028,16.9155652 4.11629044,17.0203482 C5.30879386,17.2579783 7.69695248,16.7179367 9.13688992,15.6033765 Z M3.07820971,17.6701001 C2.73056411,17.4368244 2.76961777,17.096035 2.95518955,16.8158649 C3.02567595,16.7094468 3.12145935,16.6023519 3.28158999,16.4404154 C3.33069095,16.3907607 3.62162612,16.1027436 3.71291923,16.0102575 C3.86690609,15.8542583 4.00167338,15.7115384 4.12848114,15.5682661 C1.32513037,14.1337832 -0.5,11.2352142 -0.5,7.99938448 C-0.5,3.30530405 3.30530405,-0.5 7.99938448,-0.5 L11.9990767,-0.5 C16.6931572,-0.5 20.4984612,3.30530405 20.4984612,7.99938448 C20.4984612,12.6934649 16.6931572,16.498769 11.9990767,16.498769 L9.60967094,16.498769 C7.60982527,17.9559306 4.32566994,18.5071655 3.07820971,17.6701001 Z" id="Combined-Shape"></path>
            <path d="M7.14230757,6.21384606 C6.8661652,6.21384606 6.64230757,5.98998843 6.64230757,5.71384606 C6.64230757,5.43770369 6.8661652,5.21384606 7.14230757,5.21384606 L12.8561536,5.21384606 C13.132296,5.21384606 13.3561536,5.43770369 13.3561536,5.71384606 C13.3561536,5.98998843 13.132296,6.21384606 12.8561536,6.21384606 L7.14230757,6.21384606 Z" id="Line"></path>
            <path d="M7.14230757,10.4992306 C6.8661652,10.4992306 6.64230757,10.275373 6.64230757,9.9992306 C6.64230757,9.72308823 6.8661652,9.4992306 7.14230757,9.4992306 L12.8561536,9.4992306 C13.132296,9.4992306 13.3561536,9.72308823 13.3561536,9.9992306 C13.3561536,10.275373 13.132296,10.4992306 12.8561536,10.4992306 L7.14230757,10.4992306 Z" id="Line-Copy"></path>
        </g>
    </g>
</svg>