<?xml version="1.0" encoding="UTF-8"?>
<svg width="22px" height="22px" viewBox="0 0 22 22" version="1.1" xmlns="http://www.w3.org/2000/svg" xmlns:xlink="http://www.w3.org/1999/xlink">
    <!-- Generator: Sketch 49 (51002) - http://www.bohemiancoding.com/sketch -->
    <title>icon_在线客服</title>
    <desc>Created with Sketch.</desc>
    <defs></defs>
    <g id="icon_在线客服" stroke="none" stroke-width="1" fill="none" fill-rule="evenodd">
        <g id="Group-13" transform="translate(2.000000, 1.799988)" fill="#333333">
            <path d="M17.375,7.875 L16.375,7.875 C16.375,3.80189997 13.0731,0.5 9,0.5 C4.92689997,0.5 1.625,3.80189997 1.625,7.875 L0.625,7.875 C0.625,3.24961522 4.37461522,-0.5 9,-0.5 C13.6253848,-0.5 17.375,3.24961522 17.375,7.875 Z" id="Oval" fill-rule="nonzero"></path>
            <path d="M1.125,8.375 C0.779822031,8.375 0.5,8.65482203 0.5,9 L0.5,11.25 C0.5,11.595178 0.779822031,11.875 1.125,11.875 C1.47017797,11.875 1.75,11.595178 1.75,11.25 L1.75,9 C1.75,8.65482203 1.47017797,8.375 1.125,8.375 Z M1.125,7.375 C2.02246272,7.375 2.75,8.10253728 2.75,9 L2.75,11.25 C2.75,12.1474627 2.02246272,12.875 1.125,12.875 C0.227537282,12.875 -0.5,12.1474627 -0.5,11.25 L-0.5,9 C-0.5,8.10253728 0.227537282,7.375 1.125,7.375 Z" id="Rectangle-3" fill-rule="nonzero"></path>
            <path d="M16.875,8.375 C16.529822,8.375 16.25,8.65482203 16.25,9 L16.25,11.25 C16.25,11.595178 16.529822,11.875 16.875,11.875 C17.220178,11.875 17.5,11.595178 17.5,11.25 L17.5,9 C17.5,8.65482203 17.220178,8.375 16.875,8.375 Z M16.875,7.375 C17.7724627,7.375 18.5,8.10253728 18.5,9 L18.5,11.25 C18.5,12.1474627 17.7724627,12.875 16.875,12.875 C15.9775373,12.875 15.25,12.1474627 15.25,11.25 L15.25,9 C15.25,8.10253728 15.9775373,7.375 16.875,7.375 Z" id="Rectangle-3-Copy" fill-rule="nonzero"></path>
            <path d="M1.44648305,11.7138156 L2.44648305,11.7138156 C2.44648305,15.2769824 4.25219061,17.2776147 7.60108531,17.2776147 L7.60108531,18.2776147 C3.67574452,18.2776147 1.44648305,15.8077062 1.44648305,11.7138156 Z" id="Oval-2" fill-rule="nonzero"></path>
            <ellipse id="Oval-4" cx="8.4375" cy="18" rx="1.6875" ry="1.125"></ellipse>
        </g>
    </g>
</svg>