<?xml version="1.0" encoding="UTF-8"?>
<svg width="22px" height="22px" viewBox="0 0 22 22" version="1.1" xmlns="http://www.w3.org/2000/svg" xmlns:xlink="http://www.w3.org/1999/xlink">
    <!-- Generator: Sketch 49 (51002) - http://www.bohemiancoding.com/sketch -->
    <title>货品管理</title>
    <desc>Created with Sketch.</desc>
    <defs></defs>
    <g id="货品管理" stroke="none" stroke-width="1" fill="none" fill-rule="evenodd">
        <g id="Group" transform="translate(10.766732, 9.663241) rotate(-20.000000) translate(-10.766732, -9.663241) translate(2.766732, 0.163241)" fill="#333333" fill-rule="nonzero">
            <path d="M6,4.5 C5.17157288,4.5 4.5,5.17157288 4.5,6 L4.5,14 C4.5,14.8284271 5.17157288,15.5 6,15.5 L14,15.5 C14.8284271,15.5 15.5,14.8284271 15.5,14 L15.5,6 C15.5,5.17157288 14.8284271,4.5 14,4.5 L6,4.5 Z M6,3.5 L14,3.5 C15.3807119,3.5 16.5,4.61928813 16.5,6 L16.5,14 C16.5,15.3807119 15.3807119,16.5 14,16.5 L6,16.5 C4.61928813,16.5 3.5,15.3807119 3.5,14 L3.5,6 C3.5,4.61928813 4.61928813,3.5 6,3.5 Z" id="Rectangle-10"></path>
            <path d="M8.5,4.5 L8.5,6 C8.5,6.27614237 8.72385763,6.5 9,6.5 L11,6.5 C11.2761424,6.5 11.5,6.27614237 11.5,6 L11.5,4.5 L8.5,4.5 Z M12.5,3.5 L12.5,6 C12.5,6.82842712 11.8284271,7.5 11,7.5 L9,7.5 C8.17157288,7.5 7.5,6.82842712 7.5,6 L7.5,3.5 L12.5,3.5 Z" id="Rectangle"></path>
            <path d="M1.99999823,2.86735416 L0.13216497,0.83867002 C-0.0548772287,0.63552044 -0.041819735,0.319207398 0.161329698,0.132165065 C0.364479131,-0.0548772682 0.680791946,-0.0418197651 0.867834145,0.161329814 L2.86783237,2.33356048 C2.95282118,2.42586821 2.99999734,2.54675619 2.99999734,2.67223058 L2.99999734,15.4999974 C2.99999734,15.7761398 2.77613992,15.9999973 2.49999779,15.9999973 C2.22385566,15.9999973 1.99999823,15.7761398 1.99999823,15.4999974 L1.99999823,2.86735416 Z" id="Line"></path>
            <path d="M16,17.5 C16.2761424,17.5 16.5,17.7238576 16.5,18 C16.5,18.2761424 16.2761424,18.5 16,18.5 L4,18.5 C3.72385763,18.5 3.5,18.2761424 3.5,18 C3.5,17.7238576 3.72385763,17.5 4,17.5 L16,17.5 Z" id="Line"></path>
            <path d="M2.5,19.5 C1.3954305,19.5 0.5,18.6045695 0.5,17.5 C0.5,16.3954305 1.3954305,15.5 2.5,15.5 C3.6045695,15.5 4.5,16.3954305 4.5,17.5 C4.5,18.6045695 3.6045695,19.5 2.5,19.5 Z M2.5,18.5 C3.05228475,18.5 3.5,18.0522847 3.5,17.5 C3.5,16.9477153 3.05228475,16.5 2.5,16.5 C1.94771525,16.5 1.5,16.9477153 1.5,17.5 C1.5,18.0522847 1.94771525,18.5 2.5,18.5 Z" id="Oval-12"></path>
        </g>
    </g>
</svg>