<?xml version="1.0" encoding="UTF-8"?>
<svg width="36px" height="36px" viewBox="0 0 36 36" version="1.1" xmlns="http://www.w3.org/2000/svg" xmlns:xlink="http://www.w3.org/1999/xlink">
    <!-- Generator: Sketch 49 (51002) - http://www.bohemiancoding.com/sketch -->
    <title>Group 5</title>
    <desc>Created with Sketch.</desc>
    <defs></defs>
    <g id="Page-1" stroke="none" stroke-width="1" fill="none" fill-rule="evenodd">
        <g id="22-会员认证" transform="translate(-51.000000, -492.000000)">
            <g id="Group-2" transform="translate(0.000000, 424.000000)">
                <g id="Group-9" transform="translate(14.000000, 44.000000)">
                    <g id="Group-6" transform="translate(31.000000, 25.000000)">
                        <g id="Group-8">
                            <g id="Group-5" transform="translate(7.000000, 0.000000)">
                                <circle id="Oval-4" fill="#FFFFFF" cx="17" cy="17" r="17"></circle>
                                <path d="M17,34.5 C7.33501688,34.5 -0.5,26.6649831 -0.5,17 C-0.5,7.33501688 7.33501688,-0.5 17,-0.5 C26.6649831,-0.5 34.5,7.33501688 34.5,17 C34.5,26.6649831 26.6649831,34.5 17,34.5 Z M17,33.5 C26.1126984,33.5 33.5,26.1126984 33.5,17 C33.5,7.88730163 26.1126984,0.5 17,0.5 C7.88730163,0.5 0.5,7.88730163 0.5,17 C0.5,26.1126984 7.88730163,33.5 17,33.5 Z" id="Oval-4" fill="#BBBBBB" fill-rule="nonzero"></path>
                                <g id="Group-4" transform="translate(7.650000, 7.650000)" fill="#BBBBBB" fill-rule="nonzero">
                                    <path d="M0,9.31571429 C-0.276142375,9.31571429 -0.5,9.09185666 -0.5,8.81571429 C-0.5,8.53957191 -0.276142375,8.31571429 0,8.31571429 L18.7,8.31571429 C18.9761424,8.31571429 19.2,8.53957191 19.2,8.81571429 C19.2,9.09185666 18.9761424,9.31571429 18.7,9.31571429 L0,9.31571429 Z" id="Line-2"></path>
                                    <path d="M8.85,0 C8.85,-0.276142375 9.07385763,-0.5 9.35,-0.5 C9.62614237,-0.5 9.85,-0.276142375 9.85,0 L9.85,18.7 C9.85,18.9761424 9.62614237,19.2 9.35,19.2 C9.07385763,19.2 8.85,18.9761424 8.85,18.7 L8.85,0 Z" id="Line-2"></path>
                                </g>
                            </g>
                        </g>
                    </g>
                </g>
            </g>
        </g>
    </g>
</svg>