<?xml version="1.0" encoding="UTF-8"?>
<svg width="22px" height="22px" viewBox="0 0 22 22" version="1.1" xmlns="http://www.w3.org/2000/svg" xmlns:xlink="http://www.w3.org/1999/xlink">
    <!-- Generator: Sketch 49 (51002) - http://www.bohemiancoding.com/sketch -->
    <title>icon_关</title>
    <desc>Created with Sketch.</desc>
    <defs></defs>
    <g id="icon_关" stroke="none" stroke-width="1" fill="none" fill-rule="evenodd">
        <g id="Group" transform="translate(4.000000, 4.000000)" fill="#BBBBBB" fill-rule="nonzero">
            <path d="M0.0467833183,0.7538901 C-0.148478828,0.558627954 -0.148478828,0.242045464 0.0467833183,0.0467833183 C0.242045464,-0.148478828 0.558627954,-0.148478828 0.7538901,0.0467833183 L13.9532167,13.2461099 C14.1484788,13.441372 14.1484788,13.7579545 13.9532167,13.9532167 C13.7579545,14.1484788 13.441372,14.1484788 13.2461099,13.9532167 L0.0467833183,0.7538901 Z" id="Line-3"></path>
            <path d="M13.2461099,0.0467833183 C13.441372,-0.148478828 13.7579545,-0.148478828 13.9532167,0.0467833183 C14.1484788,0.242045464 14.1484788,0.558627954 13.9532167,0.7538901 L0.7538901,13.9532167 C0.558627954,14.1484788 0.242045464,14.1484788 0.0467833183,13.9532167 C-0.148478828,13.7579545 -0.148478828,13.441372 0.0467833183,13.2461099 L13.2461099,0.0467833183 Z" id="Line-3"></path>
        </g>
    </g>
</svg>